<mxfile host="app.diagrams.net" modified="2023-03-20T09:09:38.827Z" agent="5.0 (Windows NT 10.0; Win64; x64) AppleWebKit/537.36 (KHTML, like Gecko) Chrome/111.0.0.0 Safari/537.36" etag="XuXz3bjAvsaGV9QKSAK4" version="21.0.8" type="github">
  <diagram name="Page-1" id="whIJtMbnu1kGiiavZFQx">
    <mxGraphModel dx="1176" dy="529" grid="1" gridSize="10" guides="1" tooltips="1" connect="1" arrows="1" fold="1" page="1" pageScale="1" pageWidth="850" pageHeight="1100" math="0" shadow="0">
      <root>
        <mxCell id="0" />
        <mxCell id="1" parent="0" />
        <mxCell id="8s2ToU_CGryy-fiqALUz-248" value="" style="rounded=0;whiteSpace=wrap;html=1;" vertex="1" parent="1">
          <mxGeometry width="840" height="530" as="geometry" />
        </mxCell>
        <mxCell id="8s2ToU_CGryy-fiqALUz-197" value="" style="rounded=0;whiteSpace=wrap;html=1;fillStyle=hatch;strokeWidth=2;fillColor=#C7C7C7;strokeColor=#C7C7C7;" vertex="1" parent="1">
          <mxGeometry x="10" y="20" width="330" height="340" as="geometry" />
        </mxCell>
        <mxCell id="8s2ToU_CGryy-fiqALUz-209" value="" style="rounded=0;whiteSpace=wrap;html=1;strokeColor=none;fillColor=#CCCCCC;" vertex="1" parent="1">
          <mxGeometry x="140" y="350" width="316.6" height="110" as="geometry" />
        </mxCell>
        <mxCell id="8s2ToU_CGryy-fiqALUz-219" style="edgeStyle=orthogonalEdgeStyle;rounded=0;orthogonalLoop=1;jettySize=auto;html=1;entryX=0.5;entryY=1;entryDx=0;entryDy=0;strokeWidth=7;strokeColor=#A8A8A8;" edge="1" parent="1" source="8s2ToU_CGryy-fiqALUz-208" target="8s2ToU_CGryy-fiqALUz-198">
          <mxGeometry relative="1" as="geometry">
            <Array as="points">
              <mxPoint x="404" y="120" />
              <mxPoint x="404" y="120" />
            </Array>
          </mxGeometry>
        </mxCell>
        <mxCell id="8s2ToU_CGryy-fiqALUz-208" value="" style="rounded=0;whiteSpace=wrap;html=1;fillColor=#C9C9C9;strokeColor=none;" vertex="1" parent="1">
          <mxGeometry x="390" y="130" width="260" height="330" as="geometry" />
        </mxCell>
        <mxCell id="8s2ToU_CGryy-fiqALUz-1" value="&amp;nbsp;Concept&lt;span style=&quot;white-space: pre;&quot;&gt;	&lt;/span&gt;&lt;span style=&quot;white-space: pre;&quot;&gt;	&lt;/span&gt;&lt;b&gt;1&lt;/b&gt;" style="rounded=0;whiteSpace=wrap;html=1;align=left;" vertex="1" parent="1">
          <mxGeometry x="27.39" y="40" width="120" height="30" as="geometry" />
        </mxCell>
        <mxCell id="8s2ToU_CGryy-fiqALUz-2" value="&lt;div style=&quot;text-align: left;&quot;&gt;&lt;span style=&quot;background-color: initial;&quot;&gt;&amp;nbsp;System defination and&amp;nbsp; &amp;nbsp;operational context&lt;/span&gt;&lt;span style=&quot;background-color: initial; white-space: pre;&quot;&gt;	&lt;/span&gt;&lt;span style=&quot;background-color: initial; white-space: pre;&quot;&gt;	&lt;/span&gt;&lt;b&gt;2&lt;/b&gt;&lt;/div&gt;" style="rounded=0;whiteSpace=wrap;html=1;" vertex="1" parent="1">
          <mxGeometry x="61.7" y="111.02" width="150" height="40" as="geometry" />
        </mxCell>
        <mxCell id="8s2ToU_CGryy-fiqALUz-242" style="edgeStyle=orthogonalEdgeStyle;rounded=0;orthogonalLoop=1;jettySize=auto;html=1;exitX=0;exitY=0.5;exitDx=0;exitDy=0;entryX=0.088;entryY=1.166;entryDx=0;entryDy=0;entryPerimeter=0;shape=flexArrow;fillColor=default;strokeColor=#CCCCCC;strokeWidth=2;" edge="1" parent="1" source="8s2ToU_CGryy-fiqALUz-3" target="8s2ToU_CGryy-fiqALUz-1">
          <mxGeometry relative="1" as="geometry" />
        </mxCell>
        <mxCell id="8s2ToU_CGryy-fiqALUz-3" value="&lt;div style=&quot;&quot;&gt;&amp;nbsp;Risk analysis&lt;/div&gt;&lt;div style=&quot;&quot;&gt;&amp;nbsp;and evaluation&amp;nbsp;&lt;span style=&quot;white-space: pre;&quot;&gt;	&lt;/span&gt;&lt;span style=&quot;white-space: pre;&quot;&gt;	&lt;/span&gt;&lt;b&gt;3&lt;/b&gt;&lt;/div&gt;" style="rounded=0;whiteSpace=wrap;html=1;align=left;" vertex="1" parent="1">
          <mxGeometry x="74.15" y="188.94" width="150" height="40" as="geometry" />
        </mxCell>
        <mxCell id="8s2ToU_CGryy-fiqALUz-4" value="&lt;div style=&quot;&quot;&gt;&amp;nbsp;Specification of&lt;/div&gt;&lt;div style=&quot;&quot;&gt;&amp;nbsp;system requirements&amp;nbsp; &amp;nbsp;&amp;nbsp;&lt;span style=&quot;white-space: pre;&quot;&gt;	&lt;/span&gt;&lt;b&gt;4&lt;/b&gt;&lt;/div&gt;" style="rounded=0;whiteSpace=wrap;html=1;align=left;" vertex="1" parent="1">
          <mxGeometry x="102.34" y="260" width="150" height="40" as="geometry" />
        </mxCell>
        <mxCell id="8s2ToU_CGryy-fiqALUz-5" value="&lt;div style=&quot;&quot;&gt;&amp;nbsp;Architecture &amp;amp; apportionment of&amp;nbsp; &amp;nbsp; &amp;nbsp;system requirements&lt;span style=&quot;white-space: pre;&quot;&gt;	&lt;/span&gt;&lt;span style=&quot;white-space: pre;&quot;&gt;	&amp;nbsp;&lt;/span&gt;&amp;nbsp; &amp;nbsp;&lt;b&gt;5&lt;/b&gt;&lt;/div&gt;" style="rounded=0;whiteSpace=wrap;html=1;align=left;" vertex="1" parent="1">
          <mxGeometry x="141.2" y="333.89" width="190" height="40" as="geometry" />
        </mxCell>
        <mxCell id="8s2ToU_CGryy-fiqALUz-6" value="&lt;div style=&quot;&quot;&gt;Design and&amp;nbsp;&lt;/div&gt;&lt;div style=&quot;&quot;&gt;implementation&amp;nbsp; &amp;nbsp; &amp;nbsp; &amp;nbsp; &amp;nbsp; &amp;nbsp; &amp;nbsp;&lt;span style=&quot;white-space: pre;&quot;&gt;	&lt;/span&gt;&lt;b&gt;6&lt;/b&gt;&lt;/div&gt;" style="rounded=0;whiteSpace=wrap;html=1;align=left;" vertex="1" parent="1">
          <mxGeometry x="211.6" y="403.86" width="160" height="40" as="geometry" />
        </mxCell>
        <mxCell id="8s2ToU_CGryy-fiqALUz-16" value="" style="shape=image;verticalLabelPosition=bottom;labelBackgroundColor=default;verticalAlign=top;aspect=fixed;imageAspect=0;image=data:image/png,iVBORw0KGgoAAAANSUhEUgAAAGwAAAEBCAYAAACde0D9AAAAAXNSR0IArs4c6QAAAARnQU1BAACxjwv8YQUAAAAJcEhZcwAAFiUAABYlAUlSJPAAAAsGSURBVHhe7Z1Lru3EFYYvLwkaCUShf0EMgBCln/TTyRDIDGAGzIDXAIARQFppoUAaEbSSjCCgKBICiQQS8SZQ37leUqlU9nZt12O5zv9Jv3z2kbgH+99r1apVZfuBO6IGzy7Hj5ZjM+5fjuIYTwT9KegXN58aIsPq8GjQY0HNTZNhdcAsO2Lab24+Cbe8GfRDoiamKcLaoUhzDOakEWayClI44h9BObNMMs0ZlwxDzwUJJ/w7KGdSKpnmhJw5a3ohSAwmZ8yWZNpAaEvlTLmk14LEAH4XlDNkj5gOiMbQfmJCTFr7a1DOiBLJtAbQ0KXCw6C0Ivwq6NPkd3v17XKUaRUgksyk+CJ/GYRpX0e/O6LvliN/RxRi6Y6CII6kb4K+jz7Xlv3bmGadf7EBlV46JpHq/hd9bi0il6NM24Cx6cWgOJr+G/3cW3xJONLqkmkRpL3YKMajWmPSUdn/B6Y133LgHYyKFxu5OFapeRJjJke+ULfSNIyK16zsgniWRdqtMo1xIE59VkKfRf9fjrfCNBYNbZ3Ky/h0jeLpBNXsdJD+4vL8zGbFejVoKiz9/SeIEzxb+tvSdGYRVZb+PFZ9R8SXcBrSqLKJ5yx6JWgaqJpsTjXLOBVrKrOoAM9aqu8RZk3RmuIk6KTbidk8ZSZNZZalwJZLHSPFl3EKsxivrAqcrbAwvRE0hVmU7FYFzlaym/4QNIVZLNF/FpQ7yVn0btDpzeIEmF/lTnAm/S1oCrNmLy7QFFsBbotZ00WW5/kVX6QjxY8iq4NSg+iysIJtU429UmQ1VPrFITIohJgT2kWPuy6XpMhqoLSJTBQxtVhbnrf/90sisqZYLbZv6OjIihvIpDs2le7ZQ7HHMCJrCrP45nJCHtKgjUncOlSStuKdWDkxxk1l1ohWU/w3LZquHVu2io5pzCLVfB6UO8mWivciYhRfmqNFwJph/Pt7Uqp7OAlOJneSrRSn3FpGGblzmcYsLhLVUnqCLRXvnq1plJH+vanM2lsC15BNEVoZZcR/k79F0TIFDOzxybVSnP6o4Fp+2yko7G9NZRYLkD3uubKigkKgx7OdzLCpzCIVfRgUX9jaMqNYlW6Z/lKsgJrGLGg9btmcim5C78GevzeVWXzbuZgtOhlxK4mGbK+omha+fa0mx2bWdOloFHzbSVHpha4pKsAp2j4eaFnCW2EhKsG3vnYqjLsVSoGVqV0VWsk+zZqSJ/j2pxf8iKxkZ7xSFVgZLug/g9KLfq0sslSyN6JFocG/KRpgvcKam2j0nPeGXNrXUCqZ1ZDahYbMasyfg3IX/hrJrMbUjC6Z1YF3gnIXv1QyqwNHo8smxeoLduIvQakJe2XlP5Ni0YEj0WVrWdM83uAMHB27prjt5iywkpwzYa9YIlHXvSMlN7ClwizaWKITpLFrHrxv4xZjn+jINR15VYQD+VdQasgeqcgYwLWlPI8d0rg1gD8G5QxZk6VCdTIGYJv+S8WGHDEA23JdIu4g0bg1iPeCcqbkpBJ+MNekQ6XCgZSmQ7ZSq/U0kPeDcsakslSorWkDKU2H2qE7mL3p0KJLE+TBlOyIUq9wMKS2nDE5UWgoFXbi/uWYUpLeXgrCNDGQvUspHwQpujqyFmG/XY5rYBa8HqToGsze8Uv9wgHkIuzS+MVzN+DlIEVXZ3KG/XI5rsF/w9hFOhQO2NOO0n54J+wZvzR2DSRNiXs67byYTGOXE0h1uagyYZSWTwaSRtivluMadOQpOIQT1m4wt/u51JF3xsdBqVkmzBSOWKsQ7QGVKuWdQbpLzTJx54lKeQfERcfWM3PV5HVCbNhWhch7hoUz3g7KpUPuPhFOiCPs8eWYwj3NwiGfBMWRpd1QzvkiKDYMKR06I06JjyzHGKVDp6SPc1A6dE5u0qx06BBLibklE6VDh5hhubbTu8tROMIMe2g5AuMX8L5K4Qwz7KnlCA8GYZYWKh1ihv18ORoav5yyNoZp/HKKGUYajNH45RQz7NHlCBq/HGOG/WQ5gsYvx5hhP12O8PflKBxiht23HEFbAU5A3EPUzt4TYGZxo4NwDCkxjihVh86xMczQ/Ms5GBZ3OXjkq3BMatjd5SickhqWWxcTjkgNU0nvHBl2MjBMnIjcGKZxzDEYFi+tgNKiY9IIA0WYY3KGKcIckys6ZJhjchH29HIUTmEPfbwexg3owim5lEjEqfBwSs4w0DjmlDXDdF+YU9YMU0p0ypphqhQdw8abuEpUpeiYrZSowsMha4aBCg+HbBn26+UonJEbwzSOOYUIW9tLr3HMIVuGgV7v64xLhmkccwaGbe2nV6XoDAzb2p7NOLb1aFnRmUspERRlzqCwyJX1Jt0z5ggibAueWU9pr/LeCZeKDjNU5b0jKCxyqTCWuh7OyJlksld5KC06gghKjUr1WpBwwtprqGLp+R0OsKJiz83o3DShNxwNxgzb+7g99RadQEGRS4M5qfgYiEVYyfiktOiEtZXnVCo+BvLAcgS68ns68w8H0eF/7+aTGMYLQbmIykmdj0HYGAYlz5minaWxbDB7eoqxtOzigL2Fh/UX1cUfzItBqTlb0huQBnNp9TknRdlAbByzlLdHGssGs3ccQ3rtvQNKxzGk7kcn4nmYcc2Lclh6wWgxgNL5WCx18gexZwU6pzeDxABK+oqptLV7AEfSosr8QZSU96m0w2oAzK1yZuyVbqLozJG0iDQ3GwCpLWfGXqlq7Mw1zeBUag53hrtbckbsFfs/NKGuRK41lXI0rfF+TVWNHTlafJiYjItOHJmTxdJ41omjc7JYal114mjxYWJ+RpoVjakZZdq804kPg3IGlMi2FWhS3YGaUYa0F6QxjD21xjKTTGvMkcXNNcm0htSaSKeSaQ25ZivcHsm0RrSKMiTTGsGFzV3wGpJpjUjfPVZTzwWJytAXzF3sWtJu4gYc3UZwSWxqFRVpWYB8vxxJvVq1rkjLAsRMo8uvrXMVaVmAxFIxUonWBUgsFSOVaNUByYmI1up1BXqkxvgebEXbQUoe5VdLiraD2I5hq/BaKv4bKkgOwBaA+ML2kqLtSlqsTl/Sd9HPdGA02S5kxHiWSkVJIS27ICXSkk0BNp6VPBKphRjfZNxOrn2URAtxr4BS5QUoQnpMqi8pnWpgnIqTFTCtxu7hFiJtK11m8FA5bsnSpZZyIrgYuYs1Wmm65OnhMm/Bq2mmbzO/u/Xm0ftLL4pH5aYjVL10UziHW9UKa7FXv6Xi9lcqCheikOZ3k8rzvuU4GtLMmXdHkT4fuvdjFnqqvMiBfSlUycDv0Ds3n06I9zGtRBQvuTEwp6JI3POcjl7wTXsmaOtV+2eB6/rgvR/nhwHcXqI6uvfYUnZuNBNOD2nCQxurh6bBS++xpYpf6+VpDEuhomJMe+nm05xM+0zJuILcW32dQWSQIjxHWAwV5JNBzGVmqr6KI+wshgGTzNlT5LTUeFKqBxU/R/JMERbzVhDRVvLezik4q2GAWZj2fNBZq62px7A1GNN+FvT6zad70EWYkhkMM34fZGnyLOdV3DedyTCI0+QZoPItYjbDjFyaBCoz4Rwayemq9taqcU/podUXSPeQfJN87q1bvaGnBIyr9Wj3I9J9bIVgXLqE0zNdNtmocxvgm844l0Zda/NkWAUYV3LmtdiuMMX2AE9gHvsMbY9JqqNFSzFe9iWeAcwjhT29/JwrGC7tT4yhy6EI6wzzKNJnyc2KXy1HUm4xirC6EHVEIZHD8e5yNMVYG60IGdYXM9LMY12vgDt3fgRQHVN+nOOVawAAAABJRU5ErkJggg==;" vertex="1" parent="1">
          <mxGeometry x="14.780000000000001" y="40" width="12.61" height="30" as="geometry" />
        </mxCell>
        <mxCell id="8s2ToU_CGryy-fiqALUz-17" value="" style="shape=image;verticalLabelPosition=bottom;labelBackgroundColor=default;verticalAlign=top;aspect=fixed;imageAspect=0;image=data:image/png,iVBORw0KGgoAAAANSUhEUgAAAGwAAAEBCAYAAACde0D9AAAAAXNSR0IArs4c6QAAAARnQU1BAACxjwv8YQUAAAAJcEhZcwAAFiUAABYlAUlSJPAAAAsGSURBVHhe7Z1Lru3EFYYvLwkaCUShf0EMgBCln/TTyRDIDGAGzIDXAIARQFppoUAaEbSSjCCgKBICiQQS8SZQ37leUqlU9nZt12O5zv9Jv3z2kbgH+99r1apVZfuBO6IGzy7Hj5ZjM+5fjuIYTwT9KegXN58aIsPq8GjQY0HNTZNhdcAsO2Lab24+Cbe8GfRDoiamKcLaoUhzDOakEWayClI44h9BObNMMs0ZlwxDzwUJJ/w7KGdSKpnmhJw5a3ohSAwmZ8yWZNpAaEvlTLmk14LEAH4XlDNkj5gOiMbQfmJCTFr7a1DOiBLJtAbQ0KXCw6C0Ivwq6NPkd3v17XKUaRUgksyk+CJ/GYRpX0e/O6LvliN/RxRi6Y6CII6kb4K+jz7Xlv3bmGadf7EBlV46JpHq/hd9bi0il6NM24Cx6cWgOJr+G/3cW3xJONLqkmkRpL3YKMajWmPSUdn/B6Y133LgHYyKFxu5OFapeRJjJke+ULfSNIyK16zsgniWRdqtMo1xIE59VkKfRf9fjrfCNBYNbZ3Ky/h0jeLpBNXsdJD+4vL8zGbFejVoKiz9/SeIEzxb+tvSdGYRVZb+PFZ9R8SXcBrSqLKJ5yx6JWgaqJpsTjXLOBVrKrOoAM9aqu8RZk3RmuIk6KTbidk8ZSZNZZalwJZLHSPFl3EKsxivrAqcrbAwvRE0hVmU7FYFzlaym/4QNIVZLNF/FpQ7yVn0btDpzeIEmF/lTnAm/S1oCrNmLy7QFFsBbotZ00WW5/kVX6QjxY8iq4NSg+iysIJtU429UmQ1VPrFITIohJgT2kWPuy6XpMhqoLSJTBQxtVhbnrf/90sisqZYLbZv6OjIihvIpDs2le7ZQ7HHMCJrCrP45nJCHtKgjUncOlSStuKdWDkxxk1l1ohWU/w3LZquHVu2io5pzCLVfB6UO8mWivciYhRfmqNFwJph/Pt7Uqp7OAlOJneSrRSn3FpGGblzmcYsLhLVUnqCLRXvnq1plJH+vanM2lsC15BNEVoZZcR/k79F0TIFDOzxybVSnP6o4Fp+2yko7G9NZRYLkD3uubKigkKgx7OdzLCpzCIVfRgUX9jaMqNYlW6Z/lKsgJrGLGg9btmcim5C78GevzeVWXzbuZgtOhlxK4mGbK+omha+fa0mx2bWdOloFHzbSVHpha4pKsAp2j4eaFnCW2EhKsG3vnYqjLsVSoGVqV0VWsk+zZqSJ/j2pxf8iKxkZ7xSFVgZLug/g9KLfq0sslSyN6JFocG/KRpgvcKam2j0nPeGXNrXUCqZ1ZDahYbMasyfg3IX/hrJrMbUjC6Z1YF3gnIXv1QyqwNHo8smxeoLduIvQakJe2XlP5Ni0YEj0WVrWdM83uAMHB27prjt5iywkpwzYa9YIlHXvSMlN7ClwizaWKITpLFrHrxv4xZjn+jINR15VYQD+VdQasgeqcgYwLWlPI8d0rg1gD8G5QxZk6VCdTIGYJv+S8WGHDEA23JdIu4g0bg1iPeCcqbkpBJ+MNekQ6XCgZSmQ7ZSq/U0kPeDcsakslSorWkDKU2H2qE7mL3p0KJLE+TBlOyIUq9wMKS2nDE5UWgoFXbi/uWYUpLeXgrCNDGQvUspHwQpujqyFmG/XY5rYBa8HqToGsze8Uv9wgHkIuzS+MVzN+DlIEVXZ3KG/XI5rsF/w9hFOhQO2NOO0n54J+wZvzR2DSRNiXs67byYTGOXE0h1uagyYZSWTwaSRtivluMadOQpOIQT1m4wt/u51JF3xsdBqVkmzBSOWKsQ7QGVKuWdQbpLzTJx54lKeQfERcfWM3PV5HVCbNhWhch7hoUz3g7KpUPuPhFOiCPs8eWYwj3NwiGfBMWRpd1QzvkiKDYMKR06I06JjyzHGKVDp6SPc1A6dE5u0qx06BBLibklE6VDh5hhubbTu8tROMIMe2g5AuMX8L5K4Qwz7KnlCA8GYZYWKh1ihv18ORoav5yyNoZp/HKKGUYajNH45RQz7NHlCBq/HGOG/WQ5gsYvx5hhP12O8PflKBxiht23HEFbAU5A3EPUzt4TYGZxo4NwDCkxjihVh86xMczQ/Ms5GBZ3OXjkq3BMatjd5SickhqWWxcTjkgNU0nvHBl2MjBMnIjcGKZxzDEYFi+tgNKiY9IIA0WYY3KGKcIckys6ZJhjchH29HIUTmEPfbwexg3owim5lEjEqfBwSs4w0DjmlDXDdF+YU9YMU0p0ypphqhQdw8abuEpUpeiYrZSowsMha4aBCg+HbBn26+UonJEbwzSOOYUIW9tLr3HMIVuGgV7v64xLhmkccwaGbe2nV6XoDAzb2p7NOLb1aFnRmUspERRlzqCwyJX1Jt0z5ggibAueWU9pr/LeCZeKDjNU5b0jKCxyqTCWuh7OyJlksld5KC06gghKjUr1WpBwwtprqGLp+R0OsKJiz83o3DShNxwNxgzb+7g99RadQEGRS4M5qfgYiEVYyfiktOiEtZXnVCo+BvLAcgS68ns68w8H0eF/7+aTGMYLQbmIykmdj0HYGAYlz5minaWxbDB7eoqxtOzigL2Fh/UX1cUfzItBqTlb0huQBnNp9TknRdlAbByzlLdHGssGs3ccQ3rtvQNKxzGk7kcn4nmYcc2Lclh6wWgxgNL5WCx18gexZwU6pzeDxABK+oqptLV7AEfSosr8QZSU96m0w2oAzK1yZuyVbqLozJG0iDQ3GwCpLWfGXqlq7Mw1zeBUag53hrtbckbsFfs/NKGuRK41lXI0rfF+TVWNHTlafJiYjItOHJmTxdJ41omjc7JYal114mjxYWJ+RpoVjakZZdq804kPg3IGlMi2FWhS3YGaUYa0F6QxjD21xjKTTGvMkcXNNcm0htSaSKeSaQ25ZivcHsm0RrSKMiTTGsGFzV3wGpJpjUjfPVZTzwWJytAXzF3sWtJu4gYc3UZwSWxqFRVpWYB8vxxJvVq1rkjLAsRMo8uvrXMVaVmAxFIxUonWBUgsFSOVaNUByYmI1up1BXqkxvgebEXbQUoe5VdLiraD2I5hq/BaKv4bKkgOwBaA+ML2kqLtSlqsTl/Sd9HPdGA02S5kxHiWSkVJIS27ICXSkk0BNp6VPBKphRjfZNxOrn2URAtxr4BS5QUoQnpMqi8pnWpgnIqTFTCtxu7hFiJtK11m8FA5bsnSpZZyIrgYuYs1Wmm65OnhMm/Bq2mmbzO/u/Xm0ftLL4pH5aYjVL10UziHW9UKa7FXv6Xi9lcqCheikOZ3k8rzvuU4GtLMmXdHkT4fuvdjFnqqvMiBfSlUycDv0Ds3n06I9zGtRBQvuTEwp6JI3POcjl7wTXsmaOtV+2eB6/rgvR/nhwHcXqI6uvfYUnZuNBNOD2nCQxurh6bBS++xpYpf6+VpDEuhomJMe+nm05xM+0zJuILcW32dQWSQIjxHWAwV5JNBzGVmqr6KI+wshgGTzNlT5LTUeFKqBxU/R/JMERbzVhDRVvLezik4q2GAWZj2fNBZq62px7A1GNN+FvT6zad70EWYkhkMM34fZGnyLOdV3DedyTCI0+QZoPItYjbDjFyaBCoz4Rwayemq9taqcU/podUXSPeQfJN87q1bvaGnBIyr9Wj3I9J9bIVgXLqE0zNdNtmocxvgm844l0Zda/NkWAUYV3LmtdiuMMX2AE9gHvsMbY9JqqNFSzFe9iWeAcwjhT29/JwrGC7tT4yhy6EI6wzzKNJnyc2KXy1HUm4xirC6EHVEIZHD8e5yNMVYG60IGdYXM9LMY12vgDt3fgRQHVN+nOOVawAAAABJRU5ErkJggg==;" vertex="1" parent="1">
          <mxGeometry x="46.599999999999994" y="111.02" width="16.81" height="40" as="geometry" />
        </mxCell>
        <mxCell id="8s2ToU_CGryy-fiqALUz-19" value="" style="shape=image;verticalLabelPosition=bottom;labelBackgroundColor=default;verticalAlign=top;aspect=fixed;imageAspect=0;image=data:image/png,iVBORw0KGgoAAAANSUhEUgAAAGwAAAEBCAYAAACde0D9AAAAAXNSR0IArs4c6QAAAARnQU1BAACxjwv8YQUAAAAJcEhZcwAAFiUAABYlAUlSJPAAAAsGSURBVHhe7Z1Lru3EFYYvLwkaCUShf0EMgBCln/TTyRDIDGAGzIDXAIARQFppoUAaEbSSjCCgKBICiQQS8SZQ37leUqlU9nZt12O5zv9Jv3z2kbgH+99r1apVZfuBO6IGzy7Hj5ZjM+5fjuIYTwT9KegXN58aIsPq8GjQY0HNTZNhdcAsO2Lab24+Cbe8GfRDoiamKcLaoUhzDOakEWayClI44h9BObNMMs0ZlwxDzwUJJ/w7KGdSKpnmhJw5a3ohSAwmZ8yWZNpAaEvlTLmk14LEAH4XlDNkj5gOiMbQfmJCTFr7a1DOiBLJtAbQ0KXCw6C0Ivwq6NPkd3v17XKUaRUgksyk+CJ/GYRpX0e/O6LvliN/RxRi6Y6CII6kb4K+jz7Xlv3bmGadf7EBlV46JpHq/hd9bi0il6NM24Cx6cWgOJr+G/3cW3xJONLqkmkRpL3YKMajWmPSUdn/B6Y133LgHYyKFxu5OFapeRJjJke+ULfSNIyK16zsgniWRdqtMo1xIE59VkKfRf9fjrfCNBYNbZ3Ky/h0jeLpBNXsdJD+4vL8zGbFejVoKiz9/SeIEzxb+tvSdGYRVZb+PFZ9R8SXcBrSqLKJ5yx6JWgaqJpsTjXLOBVrKrOoAM9aqu8RZk3RmuIk6KTbidk8ZSZNZZalwJZLHSPFl3EKsxivrAqcrbAwvRE0hVmU7FYFzlaym/4QNIVZLNF/FpQ7yVn0btDpzeIEmF/lTnAm/S1oCrNmLy7QFFsBbotZ00WW5/kVX6QjxY8iq4NSg+iysIJtU429UmQ1VPrFITIohJgT2kWPuy6XpMhqoLSJTBQxtVhbnrf/90sisqZYLbZv6OjIihvIpDs2le7ZQ7HHMCJrCrP45nJCHtKgjUncOlSStuKdWDkxxk1l1ohWU/w3LZquHVu2io5pzCLVfB6UO8mWivciYhRfmqNFwJph/Pt7Uqp7OAlOJneSrRSn3FpGGblzmcYsLhLVUnqCLRXvnq1plJH+vanM2lsC15BNEVoZZcR/k79F0TIFDOzxybVSnP6o4Fp+2yko7G9NZRYLkD3uubKigkKgx7OdzLCpzCIVfRgUX9jaMqNYlW6Z/lKsgJrGLGg9btmcim5C78GevzeVWXzbuZgtOhlxK4mGbK+omha+fa0mx2bWdOloFHzbSVHpha4pKsAp2j4eaFnCW2EhKsG3vnYqjLsVSoGVqV0VWsk+zZqSJ/j2pxf8iKxkZ7xSFVgZLug/g9KLfq0sslSyN6JFocG/KRpgvcKam2j0nPeGXNrXUCqZ1ZDahYbMasyfg3IX/hrJrMbUjC6Z1YF3gnIXv1QyqwNHo8smxeoLduIvQakJe2XlP5Ni0YEj0WVrWdM83uAMHB27prjt5iywkpwzYa9YIlHXvSMlN7ClwizaWKITpLFrHrxv4xZjn+jINR15VYQD+VdQasgeqcgYwLWlPI8d0rg1gD8G5QxZk6VCdTIGYJv+S8WGHDEA23JdIu4g0bg1iPeCcqbkpBJ+MNekQ6XCgZSmQ7ZSq/U0kPeDcsakslSorWkDKU2H2qE7mL3p0KJLE+TBlOyIUq9wMKS2nDE5UWgoFXbi/uWYUpLeXgrCNDGQvUspHwQpujqyFmG/XY5rYBa8HqToGsze8Uv9wgHkIuzS+MVzN+DlIEVXZ3KG/XI5rsF/w9hFOhQO2NOO0n54J+wZvzR2DSRNiXs67byYTGOXE0h1uagyYZSWTwaSRtivluMadOQpOIQT1m4wt/u51JF3xsdBqVkmzBSOWKsQ7QGVKuWdQbpLzTJx54lKeQfERcfWM3PV5HVCbNhWhch7hoUz3g7KpUPuPhFOiCPs8eWYwj3NwiGfBMWRpd1QzvkiKDYMKR06I06JjyzHGKVDp6SPc1A6dE5u0qx06BBLibklE6VDh5hhubbTu8tROMIMe2g5AuMX8L5K4Qwz7KnlCA8GYZYWKh1ihv18ORoav5yyNoZp/HKKGUYajNH45RQz7NHlCBq/HGOG/WQ5gsYvx5hhP12O8PflKBxiht23HEFbAU5A3EPUzt4TYGZxo4NwDCkxjihVh86xMczQ/Ms5GBZ3OXjkq3BMatjd5SickhqWWxcTjkgNU0nvHBl2MjBMnIjcGKZxzDEYFi+tgNKiY9IIA0WYY3KGKcIckys6ZJhjchH29HIUTmEPfbwexg3owim5lEjEqfBwSs4w0DjmlDXDdF+YU9YMU0p0ypphqhQdw8abuEpUpeiYrZSowsMha4aBCg+HbBn26+UonJEbwzSOOYUIW9tLr3HMIVuGgV7v64xLhmkccwaGbe2nV6XoDAzb2p7NOLb1aFnRmUspERRlzqCwyJX1Jt0z5ggibAueWU9pr/LeCZeKDjNU5b0jKCxyqTCWuh7OyJlksld5KC06gghKjUr1WpBwwtprqGLp+R0OsKJiz83o3DShNxwNxgzb+7g99RadQEGRS4M5qfgYiEVYyfiktOiEtZXnVCo+BvLAcgS68ns68w8H0eF/7+aTGMYLQbmIykmdj0HYGAYlz5minaWxbDB7eoqxtOzigL2Fh/UX1cUfzItBqTlb0huQBnNp9TknRdlAbByzlLdHGssGs3ccQ3rtvQNKxzGk7kcn4nmYcc2Lclh6wWgxgNL5WCx18gexZwU6pzeDxABK+oqptLV7AEfSosr8QZSU96m0w2oAzK1yZuyVbqLozJG0iDQ3GwCpLWfGXqlq7Mw1zeBUag53hrtbckbsFfs/NKGuRK41lXI0rfF+TVWNHTlafJiYjItOHJmTxdJ41omjc7JYal114mjxYWJ+RpoVjakZZdq804kPg3IGlMi2FWhS3YGaUYa0F6QxjD21xjKTTGvMkcXNNcm0htSaSKeSaQ25ZivcHsm0RrSKMiTTGsGFzV3wGpJpjUjfPVZTzwWJytAXzF3sWtJu4gYc3UZwSWxqFRVpWYB8vxxJvVq1rkjLAsRMo8uvrXMVaVmAxFIxUonWBUgsFSOVaNUByYmI1up1BXqkxvgebEXbQUoe5VdLiraD2I5hq/BaKv4bKkgOwBaA+ML2kqLtSlqsTl/Sd9HPdGA02S5kxHiWSkVJIS27ICXSkk0BNp6VPBKphRjfZNxOrn2URAtxr4BS5QUoQnpMqi8pnWpgnIqTFTCtxu7hFiJtK11m8FA5bsnSpZZyIrgYuYs1Wmm65OnhMm/Bq2mmbzO/u/Xm0ftLL4pH5aYjVL10UziHW9UKa7FXv6Xi9lcqCheikOZ3k8rzvuU4GtLMmXdHkT4fuvdjFnqqvMiBfSlUycDv0Ds3n06I9zGtRBQvuTEwp6JI3POcjl7wTXsmaOtV+2eB6/rgvR/nhwHcXqI6uvfYUnZuNBNOD2nCQxurh6bBS++xpYpf6+VpDEuhomJMe+nm05xM+0zJuILcW32dQWSQIjxHWAwV5JNBzGVmqr6KI+wshgGTzNlT5LTUeFKqBxU/R/JMERbzVhDRVvLezik4q2GAWZj2fNBZq62px7A1GNN+FvT6zad70EWYkhkMM34fZGnyLOdV3DedyTCI0+QZoPItYjbDjFyaBCoz4Rwayemq9taqcU/podUXSPeQfJN87q1bvaGnBIyr9Wj3I9J9bIVgXLqE0zNdNtmocxvgm844l0Zda/NkWAUYV3LmtdiuMMX2AE9gHvsMbY9JqqNFSzFe9iWeAcwjhT29/JwrGC7tT4yhy6EI6wzzKNJnyc2KXy1HUm4xirC6EHVEIZHD8e5yNMVYG60IGdYXM9LMY12vgDt3fgRQHVN+nOOVawAAAABJRU5ErkJggg==;" vertex="1" parent="1">
          <mxGeometry x="57.34000000000001" y="188.94" width="16.81" height="40" as="geometry" />
        </mxCell>
        <mxCell id="8s2ToU_CGryy-fiqALUz-225" style="edgeStyle=orthogonalEdgeStyle;rounded=0;orthogonalLoop=1;jettySize=auto;html=1;exitX=1;exitY=0.5;exitDx=0;exitDy=0;strokeColor=#B3B3B3;strokeWidth=2;shape=flexArrow;fillColor=#FFFFFF;" edge="1" parent="1" source="8s2ToU_CGryy-fiqALUz-20">
          <mxGeometry relative="1" as="geometry">
            <mxPoint x="50" y="400" as="targetPoint" />
            <Array as="points">
              <mxPoint x="50" y="280" />
            </Array>
          </mxGeometry>
        </mxCell>
        <mxCell id="8s2ToU_CGryy-fiqALUz-20" value="" style="shape=image;verticalLabelPosition=bottom;labelBackgroundColor=default;verticalAlign=top;aspect=fixed;imageAspect=0;image=data:image/png,iVBORw0KGgoAAAANSUhEUgAAAGwAAAEBCAYAAACde0D9AAAAAXNSR0IArs4c6QAAAARnQU1BAACxjwv8YQUAAAAJcEhZcwAAFiUAABYlAUlSJPAAAAsGSURBVHhe7Z1Lru3EFYYvLwkaCUShf0EMgBCln/TTyRDIDGAGzIDXAIARQFppoUAaEbSSjCCgKBICiQQS8SZQ37leUqlU9nZt12O5zv9Jv3z2kbgH+99r1apVZfuBO6IGzy7Hj5ZjM+5fjuIYTwT9KegXN58aIsPq8GjQY0HNTZNhdcAsO2Lab24+Cbe8GfRDoiamKcLaoUhzDOakEWayClI44h9BObNMMs0ZlwxDzwUJJ/w7KGdSKpnmhJw5a3ohSAwmZ8yWZNpAaEvlTLmk14LEAH4XlDNkj5gOiMbQfmJCTFr7a1DOiBLJtAbQ0KXCw6C0Ivwq6NPkd3v17XKUaRUgksyk+CJ/GYRpX0e/O6LvliN/RxRi6Y6CII6kb4K+jz7Xlv3bmGadf7EBlV46JpHq/hd9bi0il6NM24Cx6cWgOJr+G/3cW3xJONLqkmkRpL3YKMajWmPSUdn/B6Y133LgHYyKFxu5OFapeRJjJke+ULfSNIyK16zsgniWRdqtMo1xIE59VkKfRf9fjrfCNBYNbZ3Ky/h0jeLpBNXsdJD+4vL8zGbFejVoKiz9/SeIEzxb+tvSdGYRVZb+PFZ9R8SXcBrSqLKJ5yx6JWgaqJpsTjXLOBVrKrOoAM9aqu8RZk3RmuIk6KTbidk8ZSZNZZalwJZLHSPFl3EKsxivrAqcrbAwvRE0hVmU7FYFzlaym/4QNIVZLNF/FpQ7yVn0btDpzeIEmF/lTnAm/S1oCrNmLy7QFFsBbotZ00WW5/kVX6QjxY8iq4NSg+iysIJtU429UmQ1VPrFITIohJgT2kWPuy6XpMhqoLSJTBQxtVhbnrf/90sisqZYLbZv6OjIihvIpDs2le7ZQ7HHMCJrCrP45nJCHtKgjUncOlSStuKdWDkxxk1l1ohWU/w3LZquHVu2io5pzCLVfB6UO8mWivciYhRfmqNFwJph/Pt7Uqp7OAlOJneSrRSn3FpGGblzmcYsLhLVUnqCLRXvnq1plJH+vanM2lsC15BNEVoZZcR/k79F0TIFDOzxybVSnP6o4Fp+2yko7G9NZRYLkD3uubKigkKgx7OdzLCpzCIVfRgUX9jaMqNYlW6Z/lKsgJrGLGg9btmcim5C78GevzeVWXzbuZgtOhlxK4mGbK+omha+fa0mx2bWdOloFHzbSVHpha4pKsAp2j4eaFnCW2EhKsG3vnYqjLsVSoGVqV0VWsk+zZqSJ/j2pxf8iKxkZ7xSFVgZLug/g9KLfq0sslSyN6JFocG/KRpgvcKam2j0nPeGXNrXUCqZ1ZDahYbMasyfg3IX/hrJrMbUjC6Z1YF3gnIXv1QyqwNHo8smxeoLduIvQakJe2XlP5Ni0YEj0WVrWdM83uAMHB27prjt5iywkpwzYa9YIlHXvSMlN7ClwizaWKITpLFrHrxv4xZjn+jINR15VYQD+VdQasgeqcgYwLWlPI8d0rg1gD8G5QxZk6VCdTIGYJv+S8WGHDEA23JdIu4g0bg1iPeCcqbkpBJ+MNekQ6XCgZSmQ7ZSq/U0kPeDcsakslSorWkDKU2H2qE7mL3p0KJLE+TBlOyIUq9wMKS2nDE5UWgoFXbi/uWYUpLeXgrCNDGQvUspHwQpujqyFmG/XY5rYBa8HqToGsze8Uv9wgHkIuzS+MVzN+DlIEVXZ3KG/XI5rsF/w9hFOhQO2NOO0n54J+wZvzR2DSRNiXs67byYTGOXE0h1uagyYZSWTwaSRtivluMadOQpOIQT1m4wt/u51JF3xsdBqVkmzBSOWKsQ7QGVKuWdQbpLzTJx54lKeQfERcfWM3PV5HVCbNhWhch7hoUz3g7KpUPuPhFOiCPs8eWYwj3NwiGfBMWRpd1QzvkiKDYMKR06I06JjyzHGKVDp6SPc1A6dE5u0qx06BBLibklE6VDh5hhubbTu8tROMIMe2g5AuMX8L5K4Qwz7KnlCA8GYZYWKh1ihv18ORoav5yyNoZp/HKKGUYajNH45RQz7NHlCBq/HGOG/WQ5gsYvx5hhP12O8PflKBxiht23HEFbAU5A3EPUzt4TYGZxo4NwDCkxjihVh86xMczQ/Ms5GBZ3OXjkq3BMatjd5SickhqWWxcTjkgNU0nvHBl2MjBMnIjcGKZxzDEYFi+tgNKiY9IIA0WYY3KGKcIckys6ZJhjchH29HIUTmEPfbwexg3owim5lEjEqfBwSs4w0DjmlDXDdF+YU9YMU0p0ypphqhQdw8abuEpUpeiYrZSowsMha4aBCg+HbBn26+UonJEbwzSOOYUIW9tLr3HMIVuGgV7v64xLhmkccwaGbe2nV6XoDAzb2p7NOLb1aFnRmUspERRlzqCwyJX1Jt0z5ggibAueWU9pr/LeCZeKDjNU5b0jKCxyqTCWuh7OyJlksld5KC06gghKjUr1WpBwwtprqGLp+R0OsKJiz83o3DShNxwNxgzb+7g99RadQEGRS4M5qfgYiEVYyfiktOiEtZXnVCo+BvLAcgS68ns68w8H0eF/7+aTGMYLQbmIykmdj0HYGAYlz5minaWxbDB7eoqxtOzigL2Fh/UX1cUfzItBqTlb0huQBnNp9TknRdlAbByzlLdHGssGs3ccQ3rtvQNKxzGk7kcn4nmYcc2Lclh6wWgxgNL5WCx18gexZwU6pzeDxABK+oqptLV7AEfSosr8QZSU96m0w2oAzK1yZuyVbqLozJG0iDQ3GwCpLWfGXqlq7Mw1zeBUag53hrtbckbsFfs/NKGuRK41lXI0rfF+TVWNHTlafJiYjItOHJmTxdJ41omjc7JYal114mjxYWJ+RpoVjakZZdq804kPg3IGlMi2FWhS3YGaUYa0F6QxjD21xjKTTGvMkcXNNcm0htSaSKeSaQ25ZivcHsm0RrSKMiTTGsGFzV3wGpJpjUjfPVZTzwWJytAXzF3sWtJu4gYc3UZwSWxqFRVpWYB8vxxJvVq1rkjLAsRMo8uvrXMVaVmAxFIxUonWBUgsFSOVaNUByYmI1up1BXqkxvgebEXbQUoe5VdLiraD2I5hq/BaKv4bKkgOwBaA+ML2kqLtSlqsTl/Sd9HPdGA02S5kxHiWSkVJIS27ICXSkk0BNp6VPBKphRjfZNxOrn2URAtxr4BS5QUoQnpMqi8pnWpgnIqTFTCtxu7hFiJtK11m8FA5bsnSpZZyIrgYuYs1Wmm65OnhMm/Bq2mmbzO/u/Xm0ftLL4pH5aYjVL10UziHW9UKa7FXv6Xi9lcqCheikOZ3k8rzvuU4GtLMmXdHkT4fuvdjFnqqvMiBfSlUycDv0Ds3n06I9zGtRBQvuTEwp6JI3POcjl7wTXsmaOtV+2eB6/rgvR/nhwHcXqI6uvfYUnZuNBNOD2nCQxurh6bBS++xpYpf6+VpDEuhomJMe+nm05xM+0zJuILcW32dQWSQIjxHWAwV5JNBzGVmqr6KI+wshgGTzNlT5LTUeFKqBxU/R/JMERbzVhDRVvLezik4q2GAWZj2fNBZq62px7A1GNN+FvT6zad70EWYkhkMM34fZGnyLOdV3DedyTCI0+QZoPItYjbDjFyaBCoz4Rwayemq9taqcU/podUXSPeQfJN87q1bvaGnBIyr9Wj3I9J9bIVgXLqE0zNdNtmocxvgm844l0Zda/NkWAUYV3LmtdiuMMX2AE9gHvsMbY9JqqNFSzFe9iWeAcwjhT29/JwrGC7tT4yhy6EI6wzzKNJnyc2KXy1HUm4xirC6EHVEIZHD8e5yNMVYG60IGdYXM9LMY12vgDt3fgRQHVN+nOOVawAAAABJRU5ErkJggg==;" vertex="1" parent="1">
          <mxGeometry x="85.53" y="260" width="16.81" height="40" as="geometry" />
        </mxCell>
        <mxCell id="8s2ToU_CGryy-fiqALUz-21" value="" style="shape=image;verticalLabelPosition=bottom;labelBackgroundColor=default;verticalAlign=top;aspect=fixed;imageAspect=0;image=data:image/png,iVBORw0KGgoAAAANSUhEUgAAAGwAAAEBCAYAAACde0D9AAAAAXNSR0IArs4c6QAAAARnQU1BAACxjwv8YQUAAAAJcEhZcwAAFiUAABYlAUlSJPAAAAsGSURBVHhe7Z1Lru3EFYYvLwkaCUShf0EMgBCln/TTyRDIDGAGzIDXAIARQFppoUAaEbSSjCCgKBICiQQS8SZQ37leUqlU9nZt12O5zv9Jv3z2kbgH+99r1apVZfuBO6IGzy7Hj5ZjM+5fjuIYTwT9KegXN58aIsPq8GjQY0HNTZNhdcAsO2Lab24+Cbe8GfRDoiamKcLaoUhzDOakEWayClI44h9BObNMMs0ZlwxDzwUJJ/w7KGdSKpnmhJw5a3ohSAwmZ8yWZNpAaEvlTLmk14LEAH4XlDNkj5gOiMbQfmJCTFr7a1DOiBLJtAbQ0KXCw6C0Ivwq6NPkd3v17XKUaRUgksyk+CJ/GYRpX0e/O6LvliN/RxRi6Y6CII6kb4K+jz7Xlv3bmGadf7EBlV46JpHq/hd9bi0il6NM24Cx6cWgOJr+G/3cW3xJONLqkmkRpL3YKMajWmPSUdn/B6Y133LgHYyKFxu5OFapeRJjJke+ULfSNIyK16zsgniWRdqtMo1xIE59VkKfRf9fjrfCNBYNbZ3Ky/h0jeLpBNXsdJD+4vL8zGbFejVoKiz9/SeIEzxb+tvSdGYRVZb+PFZ9R8SXcBrSqLKJ5yx6JWgaqJpsTjXLOBVrKrOoAM9aqu8RZk3RmuIk6KTbidk8ZSZNZZalwJZLHSPFl3EKsxivrAqcrbAwvRE0hVmU7FYFzlaym/4QNIVZLNF/FpQ7yVn0btDpzeIEmF/lTnAm/S1oCrNmLy7QFFsBbotZ00WW5/kVX6QjxY8iq4NSg+iysIJtU429UmQ1VPrFITIohJgT2kWPuy6XpMhqoLSJTBQxtVhbnrf/90sisqZYLbZv6OjIihvIpDs2le7ZQ7HHMCJrCrP45nJCHtKgjUncOlSStuKdWDkxxk1l1ohWU/w3LZquHVu2io5pzCLVfB6UO8mWivciYhRfmqNFwJph/Pt7Uqp7OAlOJneSrRSn3FpGGblzmcYsLhLVUnqCLRXvnq1plJH+vanM2lsC15BNEVoZZcR/k79F0TIFDOzxybVSnP6o4Fp+2yko7G9NZRYLkD3uubKigkKgx7OdzLCpzCIVfRgUX9jaMqNYlW6Z/lKsgJrGLGg9btmcim5C78GevzeVWXzbuZgtOhlxK4mGbK+omha+fa0mx2bWdOloFHzbSVHpha4pKsAp2j4eaFnCW2EhKsG3vnYqjLsVSoGVqV0VWsk+zZqSJ/j2pxf8iKxkZ7xSFVgZLug/g9KLfq0sslSyN6JFocG/KRpgvcKam2j0nPeGXNrXUCqZ1ZDahYbMasyfg3IX/hrJrMbUjC6Z1YF3gnIXv1QyqwNHo8smxeoLduIvQakJe2XlP5Ni0YEj0WVrWdM83uAMHB27prjt5iywkpwzYa9YIlHXvSMlN7ClwizaWKITpLFrHrxv4xZjn+jINR15VYQD+VdQasgeqcgYwLWlPI8d0rg1gD8G5QxZk6VCdTIGYJv+S8WGHDEA23JdIu4g0bg1iPeCcqbkpBJ+MNekQ6XCgZSmQ7ZSq/U0kPeDcsakslSorWkDKU2H2qE7mL3p0KJLE+TBlOyIUq9wMKS2nDE5UWgoFXbi/uWYUpLeXgrCNDGQvUspHwQpujqyFmG/XY5rYBa8HqToGsze8Uv9wgHkIuzS+MVzN+DlIEVXZ3KG/XI5rsF/w9hFOhQO2NOO0n54J+wZvzR2DSRNiXs67byYTGOXE0h1uagyYZSWTwaSRtivluMadOQpOIQT1m4wt/u51JF3xsdBqVkmzBSOWKsQ7QGVKuWdQbpLzTJx54lKeQfERcfWM3PV5HVCbNhWhch7hoUz3g7KpUPuPhFOiCPs8eWYwj3NwiGfBMWRpd1QzvkiKDYMKR06I06JjyzHGKVDp6SPc1A6dE5u0qx06BBLibklE6VDh5hhubbTu8tROMIMe2g5AuMX8L5K4Qwz7KnlCA8GYZYWKh1ihv18ORoav5yyNoZp/HKKGUYajNH45RQz7NHlCBq/HGOG/WQ5gsYvx5hhP12O8PflKBxiht23HEFbAU5A3EPUzt4TYGZxo4NwDCkxjihVh86xMczQ/Ms5GBZ3OXjkq3BMatjd5SickhqWWxcTjkgNU0nvHBl2MjBMnIjcGKZxzDEYFi+tgNKiY9IIA0WYY3KGKcIckys6ZJhjchH29HIUTmEPfbwexg3owim5lEjEqfBwSs4w0DjmlDXDdF+YU9YMU0p0ypphqhQdw8abuEpUpeiYrZSowsMha4aBCg+HbBn26+UonJEbwzSOOYUIW9tLr3HMIVuGgV7v64xLhmkccwaGbe2nV6XoDAzb2p7NOLb1aFnRmUspERRlzqCwyJX1Jt0z5ggibAueWU9pr/LeCZeKDjNU5b0jKCxyqTCWuh7OyJlksld5KC06gghKjUr1WpBwwtprqGLp+R0OsKJiz83o3DShNxwNxgzb+7g99RadQEGRS4M5qfgYiEVYyfiktOiEtZXnVCo+BvLAcgS68ns68w8H0eF/7+aTGMYLQbmIykmdj0HYGAYlz5minaWxbDB7eoqxtOzigL2Fh/UX1cUfzItBqTlb0huQBnNp9TknRdlAbByzlLdHGssGs3ccQ3rtvQNKxzGk7kcn4nmYcc2Lclh6wWgxgNL5WCx18gexZwU6pzeDxABK+oqptLV7AEfSosr8QZSU96m0w2oAzK1yZuyVbqLozJG0iDQ3GwCpLWfGXqlq7Mw1zeBUag53hrtbckbsFfs/NKGuRK41lXI0rfF+TVWNHTlafJiYjItOHJmTxdJ41omjc7JYal114mjxYWJ+RpoVjakZZdq804kPg3IGlMi2FWhS3YGaUYa0F6QxjD21xjKTTGvMkcXNNcm0htSaSKeSaQ25ZivcHsm0RrSKMiTTGsGFzV3wGpJpjUjfPVZTzwWJytAXzF3sWtJu4gYc3UZwSWxqFRVpWYB8vxxJvVq1rkjLAsRMo8uvrXMVaVmAxFIxUonWBUgsFSOVaNUByYmI1up1BXqkxvgebEXbQUoe5VdLiraD2I5hq/BaKv4bKkgOwBaA+ML2kqLtSlqsTl/Sd9HPdGA02S5kxHiWSkVJIS27ICXSkk0BNp6VPBKphRjfZNxOrn2URAtxr4BS5QUoQnpMqi8pnWpgnIqTFTCtxu7hFiJtK11m8FA5bsnSpZZyIrgYuYs1Wmm65OnhMm/Bq2mmbzO/u/Xm0ftLL4pH5aYjVL10UziHW9UKa7FXv6Xi9lcqCheikOZ3k8rzvuU4GtLMmXdHkT4fuvdjFnqqvMiBfSlUycDv0Ds3n06I9zGtRBQvuTEwp6JI3POcjl7wTXsmaOtV+2eB6/rgvR/nhwHcXqI6uvfYUnZuNBNOD2nCQxurh6bBS++xpYpf6+VpDEuhomJMe+nm05xM+0zJuILcW32dQWSQIjxHWAwV5JNBzGVmqr6KI+wshgGTzNlT5LTUeFKqBxU/R/JMERbzVhDRVvLezik4q2GAWZj2fNBZq62px7A1GNN+FvT6zad70EWYkhkMM34fZGnyLOdV3DedyTCI0+QZoPItYjbDjFyaBCoz4Rwayemq9taqcU/podUXSPeQfJN87q1bvaGnBIyr9Wj3I9J9bIVgXLqE0zNdNtmocxvgm844l0Zda/NkWAUYV3LmtdiuMMX2AE9gHvsMbY9JqqNFSzFe9iWeAcwjhT29/JwrGC7tT4yhy6EI6wzzKNJnyc2KXy1HUm4xirC6EHVEIZHD8e5yNMVYG60IGdYXM9LMY12vgDt3fgRQHVN+nOOVawAAAABJRU5ErkJggg==;" vertex="1" parent="1">
          <mxGeometry x="124.39" y="333.89" width="16.81" height="40" as="geometry" />
        </mxCell>
        <mxCell id="8s2ToU_CGryy-fiqALUz-22" value="" style="shape=image;verticalLabelPosition=bottom;labelBackgroundColor=default;verticalAlign=top;aspect=fixed;imageAspect=0;image=data:image/png,iVBORw0KGgoAAAANSUhEUgAAAGwAAAEBCAYAAACde0D9AAAAAXNSR0IArs4c6QAAAARnQU1BAACxjwv8YQUAAAAJcEhZcwAAFiUAABYlAUlSJPAAAAsGSURBVHhe7Z1Lru3EFYYvLwkaCUShf0EMgBCln/TTyRDIDGAGzIDXAIARQFppoUAaEbSSjCCgKBICiQQS8SZQ37leUqlU9nZt12O5zv9Jv3z2kbgH+99r1apVZfuBO6IGzy7Hj5ZjM+5fjuIYTwT9KegXN58aIsPq8GjQY0HNTZNhdcAsO2Lab24+Cbe8GfRDoiamKcLaoUhzDOakEWayClI44h9BObNMMs0ZlwxDzwUJJ/w7KGdSKpnmhJw5a3ohSAwmZ8yWZNpAaEvlTLmk14LEAH4XlDNkj5gOiMbQfmJCTFr7a1DOiBLJtAbQ0KXCw6C0Ivwq6NPkd3v17XKUaRUgksyk+CJ/GYRpX0e/O6LvliN/RxRi6Y6CII6kb4K+jz7Xlv3bmGadf7EBlV46JpHq/hd9bi0il6NM24Cx6cWgOJr+G/3cW3xJONLqkmkRpL3YKMajWmPSUdn/B6Y133LgHYyKFxu5OFapeRJjJke+ULfSNIyK16zsgniWRdqtMo1xIE59VkKfRf9fjrfCNBYNbZ3Ky/h0jeLpBNXsdJD+4vL8zGbFejVoKiz9/SeIEzxb+tvSdGYRVZb+PFZ9R8SXcBrSqLKJ5yx6JWgaqJpsTjXLOBVrKrOoAM9aqu8RZk3RmuIk6KTbidk8ZSZNZZalwJZLHSPFl3EKsxivrAqcrbAwvRE0hVmU7FYFzlaym/4QNIVZLNF/FpQ7yVn0btDpzeIEmF/lTnAm/S1oCrNmLy7QFFsBbotZ00WW5/kVX6QjxY8iq4NSg+iysIJtU429UmQ1VPrFITIohJgT2kWPuy6XpMhqoLSJTBQxtVhbnrf/90sisqZYLbZv6OjIihvIpDs2le7ZQ7HHMCJrCrP45nJCHtKgjUncOlSStuKdWDkxxk1l1ohWU/w3LZquHVu2io5pzCLVfB6UO8mWivciYhRfmqNFwJph/Pt7Uqp7OAlOJneSrRSn3FpGGblzmcYsLhLVUnqCLRXvnq1plJH+vanM2lsC15BNEVoZZcR/k79F0TIFDOzxybVSnP6o4Fp+2yko7G9NZRYLkD3uubKigkKgx7OdzLCpzCIVfRgUX9jaMqNYlW6Z/lKsgJrGLGg9btmcim5C78GevzeVWXzbuZgtOhlxK4mGbK+omha+fa0mx2bWdOloFHzbSVHpha4pKsAp2j4eaFnCW2EhKsG3vnYqjLsVSoGVqV0VWsk+zZqSJ/j2pxf8iKxkZ7xSFVgZLug/g9KLfq0sslSyN6JFocG/KRpgvcKam2j0nPeGXNrXUCqZ1ZDahYbMasyfg3IX/hrJrMbUjC6Z1YF3gnIXv1QyqwNHo8smxeoLduIvQakJe2XlP5Ni0YEj0WVrWdM83uAMHB27prjt5iywkpwzYa9YIlHXvSMlN7ClwizaWKITpLFrHrxv4xZjn+jINR15VYQD+VdQasgeqcgYwLWlPI8d0rg1gD8G5QxZk6VCdTIGYJv+S8WGHDEA23JdIu4g0bg1iPeCcqbkpBJ+MNekQ6XCgZSmQ7ZSq/U0kPeDcsakslSorWkDKU2H2qE7mL3p0KJLE+TBlOyIUq9wMKS2nDE5UWgoFXbi/uWYUpLeXgrCNDGQvUspHwQpujqyFmG/XY5rYBa8HqToGsze8Uv9wgHkIuzS+MVzN+DlIEVXZ3KG/XI5rsF/w9hFOhQO2NOO0n54J+wZvzR2DSRNiXs67byYTGOXE0h1uagyYZSWTwaSRtivluMadOQpOIQT1m4wt/u51JF3xsdBqVkmzBSOWKsQ7QGVKuWdQbpLzTJx54lKeQfERcfWM3PV5HVCbNhWhch7hoUz3g7KpUPuPhFOiCPs8eWYwj3NwiGfBMWRpd1QzvkiKDYMKR06I06JjyzHGKVDp6SPc1A6dE5u0qx06BBLibklE6VDh5hhubbTu8tROMIMe2g5AuMX8L5K4Qwz7KnlCA8GYZYWKh1ihv18ORoav5yyNoZp/HKKGUYajNH45RQz7NHlCBq/HGOG/WQ5gsYvx5hhP12O8PflKBxiht23HEFbAU5A3EPUzt4TYGZxo4NwDCkxjihVh86xMczQ/Ms5GBZ3OXjkq3BMatjd5SickhqWWxcTjkgNU0nvHBl2MjBMnIjcGKZxzDEYFi+tgNKiY9IIA0WYY3KGKcIckys6ZJhjchH29HIUTmEPfbwexg3owim5lEjEqfBwSs4w0DjmlDXDdF+YU9YMU0p0ypphqhQdw8abuEpUpeiYrZSowsMha4aBCg+HbBn26+UonJEbwzSOOYUIW9tLr3HMIVuGgV7v64xLhmkccwaGbe2nV6XoDAzb2p7NOLb1aFnRmUspERRlzqCwyJX1Jt0z5ggibAueWU9pr/LeCZeKDjNU5b0jKCxyqTCWuh7OyJlksld5KC06gghKjUr1WpBwwtprqGLp+R0OsKJiz83o3DShNxwNxgzb+7g99RadQEGRS4M5qfgYiEVYyfiktOiEtZXnVCo+BvLAcgS68ns68w8H0eF/7+aTGMYLQbmIykmdj0HYGAYlz5minaWxbDB7eoqxtOzigL2Fh/UX1cUfzItBqTlb0huQBnNp9TknRdlAbByzlLdHGssGs3ccQ3rtvQNKxzGk7kcn4nmYcc2Lclh6wWgxgNL5WCx18gexZwU6pzeDxABK+oqptLV7AEfSosr8QZSU96m0w2oAzK1yZuyVbqLozJG0iDQ3GwCpLWfGXqlq7Mw1zeBUag53hrtbckbsFfs/NKGuRK41lXI0rfF+TVWNHTlafJiYjItOHJmTxdJ41omjc7JYal114mjxYWJ+RpoVjakZZdq804kPg3IGlMi2FWhS3YGaUYa0F6QxjD21xjKTTGvMkcXNNcm0htSaSKeSaQ25ZivcHsm0RrSKMiTTGsGFzV3wGpJpjUjfPVZTzwWJytAXzF3sWtJu4gYc3UZwSWxqFRVpWYB8vxxJvVq1rkjLAsRMo8uvrXMVaVmAxFIxUonWBUgsFSOVaNUByYmI1up1BXqkxvgebEXbQUoe5VdLiraD2I5hq/BaKv4bKkgOwBaA+ML2kqLtSlqsTl/Sd9HPdGA02S5kxHiWSkVJIS27ICXSkk0BNp6VPBKphRjfZNxOrn2URAtxr4BS5QUoQnpMqi8pnWpgnIqTFTCtxu7hFiJtK11m8FA5bsnSpZZyIrgYuYs1Wmm65OnhMm/Bq2mmbzO/u/Xm0ftLL4pH5aYjVL10UziHW9UKa7FXv6Xi9lcqCheikOZ3k8rzvuU4GtLMmXdHkT4fuvdjFnqqvMiBfSlUycDv0Ds3n06I9zGtRBQvuTEwp6JI3POcjl7wTXsmaOtV+2eB6/rgvR/nhwHcXqI6uvfYUnZuNBNOD2nCQxurh6bBS++xpYpf6+VpDEuhomJMe+nm05xM+0zJuILcW32dQWSQIjxHWAwV5JNBzGVmqr6KI+wshgGTzNlT5LTUeFKqBxU/R/JMERbzVhDRVvLezik4q2GAWZj2fNBZq62px7A1GNN+FvT6zad70EWYkhkMM34fZGnyLOdV3DedyTCI0+QZoPItYjbDjFyaBCoz4Rwayemq9taqcU/podUXSPeQfJN87q1bvaGnBIyr9Wj3I9J9bIVgXLqE0zNdNtmocxvgm844l0Zda/NkWAUYV3LmtdiuMMX2AE9gHvsMbY9JqqNFSzFe9iWeAcwjhT29/JwrGC7tT4yhy6EI6wzzKNJnyc2KXy1HUm4xirC6EHVEIZHD8e5yNMVYG60IGdYXM9LMY12vgDt3fgRQHVN+nOOVawAAAABJRU5ErkJggg==;" vertex="1" parent="1">
          <mxGeometry x="193.19" y="405.57" width="16.81" height="40" as="geometry" />
        </mxCell>
        <mxCell id="8s2ToU_CGryy-fiqALUz-23" value="&lt;div style=&quot;&quot;&gt;&lt;span style=&quot;background-color: initial;&quot;&gt;&amp;nbsp;Manufacture&amp;nbsp; &amp;nbsp; &amp;nbsp; &amp;nbsp; &amp;nbsp; &amp;nbsp; &amp;nbsp;&lt;/span&gt;&lt;span style=&quot;background-color: initial; white-space: pre;&quot;&gt;	&lt;/span&gt;&lt;b&gt;7&lt;/b&gt;&lt;br&gt;&lt;/div&gt;" style="rounded=0;whiteSpace=wrap;html=1;align=left;" vertex="1" parent="1">
          <mxGeometry x="406.61" y="403.86" width="160" height="40" as="geometry" />
        </mxCell>
        <mxCell id="8s2ToU_CGryy-fiqALUz-24" value="&lt;div style=&quot;&quot;&gt;&lt;span style=&quot;background-color: initial;&quot;&gt;&amp;nbsp;Integration&amp;nbsp; &amp;nbsp; &amp;nbsp; &amp;nbsp; &amp;nbsp; &amp;nbsp; &amp;nbsp;&lt;/span&gt;&lt;span style=&quot;background-color: initial; white-space: pre;&quot;&gt;	&lt;/span&gt;&amp;nbsp; &amp;nbsp; &amp;nbsp; &amp;nbsp; &amp;nbsp;&amp;nbsp;&lt;b&gt;8&lt;/b&gt;&lt;br&gt;&lt;/div&gt;" style="rounded=0;whiteSpace=wrap;html=1;align=left;" vertex="1" parent="1">
          <mxGeometry x="406.61" y="333.14" width="160" height="40" as="geometry" />
        </mxCell>
        <mxCell id="8s2ToU_CGryy-fiqALUz-227" style="edgeStyle=orthogonalEdgeStyle;rounded=0;orthogonalLoop=1;jettySize=auto;html=1;exitX=0;exitY=0.5;exitDx=0;exitDy=0;entryX=1;entryY=0.5;entryDx=0;entryDy=0;strokeWidth=8;strokeColor=#A8A8A8;" edge="1" parent="1" source="8s2ToU_CGryy-fiqALUz-25" target="8s2ToU_CGryy-fiqALUz-4">
          <mxGeometry relative="1" as="geometry" />
        </mxCell>
        <mxCell id="8s2ToU_CGryy-fiqALUz-25" value="&lt;div style=&quot;&quot;&gt;&lt;span style=&quot;background-color: initial;&quot;&gt;&amp;nbsp;System validation&amp;nbsp; &amp;nbsp; &amp;nbsp;&lt;/span&gt;&lt;span style=&quot;background-color: initial; white-space: pre;&quot;&gt;	&lt;/span&gt;&amp;nbsp; &amp;nbsp; &lt;b&gt;9&lt;/b&gt;&lt;br&gt;&lt;/div&gt;" style="rounded=0;whiteSpace=wrap;html=1;align=left;" vertex="1" parent="1">
          <mxGeometry x="425" y="260" width="160" height="40" as="geometry" />
        </mxCell>
        <mxCell id="8s2ToU_CGryy-fiqALUz-26" value="&lt;div style=&quot;&quot;&gt;&lt;span style=&quot;background-color: initial;&quot;&gt;&amp;nbsp;System acceptance&amp;nbsp; &amp;nbsp; &amp;nbsp;&lt;/span&gt;&lt;span style=&quot;background-color: initial; white-space: pre;&quot;&gt;	&lt;/span&gt;&amp;nbsp; &amp;nbsp;&lt;b&gt;10&lt;/b&gt;&lt;br&gt;&lt;/div&gt;" style="rounded=0;whiteSpace=wrap;html=1;align=left;" vertex="1" parent="1">
          <mxGeometry x="437.99" y="111.02000000000001" width="160" height="40" as="geometry" />
        </mxCell>
        <mxCell id="8s2ToU_CGryy-fiqALUz-27" value="" style="shape=image;verticalLabelPosition=bottom;labelBackgroundColor=default;verticalAlign=top;aspect=fixed;imageAspect=0;image=data:image/png,iVBORw0KGgoAAAANSUhEUgAAAG4AAAEBCAYAAACZjpDAAAAAAXNSR0IArs4c6QAAAARnQU1BAACxjwv8YQUAAAAJcEhZcwAAFiUAABYlAUlSJPAAAAtHSURBVHhe7Z1dr15DFMdbJNxIeumC6L2mSG9coRcSd/oN+Aj1CfAJxKWr8gnUSxARJZUoEVpEiAiKuHChir54X//n7HUyZ87s93lZM8//l/yznzb6HHv+Z9asWTN79o0H1vOY6AXRg6KHRfeKDosOicCl7koicrC7ruGk6Omdj71cFH0kgokXRG+LzotIQZ4U/bdQ6Kn49+itJDOnRCFTlohGZgSNHTJhrb4TIQRjvCQJOCMKNXxMnRVhLNWEh0TgY1GosVMJPRyZLFnJN6JQA+fQWDZLBvhFFGrUnOJYuIBQQ5YSDZwIGgkNdrW7WhENHOEeERrqSne1JhjITDQAJspooOvd1aJQZmMW6nFChMb5p7taFmqjzYTPG7rrUjQMrf2eHNwtwtSliSlELONqAhWYT0UYn6tlG40DR0So+FTb+9Yad2d3rRX0Pox91fW+be1xLhj70PuqyjxrSCpygXXFJhKXKeReGcghbK0wH0kYKvdzVIQ9MqZX4Rkqw9wqwgIxkpcmCYWa1oQ9ME2hKwM1lLvWqqmkRVcGtkUInWZYs5P5mug2EdbibhJhXGgZRBgkLM9v/lSYGDuZXXBz6InINvEZlRVcj4laMRa7sI/vfCxHbOOG0N9YVCoeEt0lqpV3REWnCzmNC4H1PPTQB0Sm500BUOPEAy5EwLwpxwbbWDKVsFgBJmI8CTWYJaHGSQIg0YGJ34pCDWdB3NMyAsbBmE8HxRTGazICEhqLBla3IFsKTDHWPFgZW9gKiP8nMgOMg6HGzC0810dmgkTGQgjlNGEhGGtKr843u5aXA6TpWM0ONWwOMVlZSakEBjunyUrw24/6YqiBU2prdo6lBg0ZauCUqq2AbhY05K8iNOq/3TWl8LNa3BFXBDRkqjNaQuIUITI5J+6sZ0YGiYuGzpTCzyCRQejUrDPluMf1uwTAvBwr8CxEJyJ1vZOJSkJSV1uYqCQEtc5Qo8cQy2GJwWQ91PAxxL0qiUllHqYHTFQSk8o8Tg8ykKLKclk0u9fFeO/ANnFOhPCG9yvE4mYRvhObf0liYk8VWArLSOxJOjPMjMRcFuKrbDKC2mbM3WTsdRlBRhgyYYlYTclMzDkea5iZ0U1Ia48P4cpBAWIlKyyDZSZWssLt6wWIkazg7SmkADrerdm7wnBZiLUhk1vXC7E2ZDJcFmTtcwoMlwVZ8349LrIWZE1VpbfwzIXU9OBgHczv7tv8aR63iHAYAHZYkwLAOBgQ6lVjYrgszNI9mswuDTA3UdEJ/L7sksfX5+Xx7gozpqDniSLBIYVZUlHhOGcAPEQJM+as23GcM8KSdTtWUQywpI65ZyMRk5MyYFL+3M7HyeDAcWIAHeumrtlxnDPE3HkdKjDEAHOrKZzPGWLO6e67m4iYnJRnTpLCUGkImBHqXSFh/kcMMfWRLWaWxpjT6zbhkmOcDbBFAUnKFDalL25dsAOWcKY8W/6l6Bx7nB00u0QlZQiGSmNouBzzBG+8pHHGeKq7DsG5nEE0uxxaZOXjxkYZKzxzLmeUscIzjTOKhsuhdbpDTE7sgewSW84HX/VN42wydiDbYRpnE7zZfwiGSqNoj+urotA4o4xVURgqDXO6uwahcXYZHOdonF0GxzkaZ5ehce4SjbNN7zhH42zT+xZ/Gmebvn0oDJXG0QQFheU90DjbIEGB9hWcaZx9QuGSobICgisFNM4+ode3sMdVQOgcL4x7xDi6lcHV4cHlcWIGfzpwkKGyDvaFRhpXB+6UYPOZxtXHpvfRuDpwQyWNqwiGykphclIpbvWEobIi3FC5MZHG1YEbKjnGVYR7yChDZUVsnvvuoHEVsa/HkTpAQrK7MoC/IPbRk2RVPOekEmCcC8e4SnBDozufI8Zxj8/AW0I2sMfZBuNZMKOkcbbxD8+mcZXwaHdVaFwlHOuuCo2rAEwD7tj5uMvu8g6Ns4s7vl3rrrvTARpnF/clSNe7626oJDbBNAAm6fztandlndI4J0RqmqtNnZLYJfRGR54Maxz0qssi/7zK3XIXYHJiD5wQe6vIfyBnT2JC4+zxSHf12bMyQONsgayx7+V+7HGG2fPmYY+xw0dJQc6I3IQE+rO7cg5nlL65G7TvyHqGSjv4Szgu3LJglLF3gj8t2gN7nA0QJkHfYQoXuisxhFZKQj0NqwK4qrHEEE+KfMNUf3VXZpTGQG+7KPINc7WnRqlwjCsLqiT+9gQfZpTGQG/7RBTqZa6GqimkACdFIaNUmphwfDMEetv3It8sX8HxDXCMKwN62+07HwcZex0ZyQh6m/ugYkh/d1fO3wwxNG9Tcf5mDBjRVyXx1Tu+AY5xeXlChP0kU+D4ZoSh9TZX+vL2vi0MJCNISD4V+Sb1aTBMAobKPCBEHtn5OIkXuyspCELebyINgUPS/SX+SQskMwiR2J3lGzSk0TAJGCrTggrJ/TsfJ8MwWRiEu6lzNkirJZx0FwQhEvtEfHPGhKd0JsFQmQZkkUd3Ps6Cu5ULoutsU7JIV9j0ip5KCjB3XHOF4jMpAHrLlK0IvpiUFOaUyDdlqiYnJSQuY/tH+qRbzllQLgB2YaGk5ZsyVXi0imRmTTKiWSe3J2QGprmHyCwRjsDgFCAjyADHto4PSXsbxkaSiSUV/5DY2zKChg6d+jNHOm/j1vJMxDBNxUwyEzDttChkwhxxI1BGYBoWN30TlopVkgzAtCX1x5B0bGNvSwxS/vMi34A1Ym9LDCbXa+ZpIWGyzhWAhCCULS1jhcTJdgbQuL+L/MZfK6b/iUASsmY9bUh4Fg6hl0QGpr0iQiP3Hcm0RJpFcktCAjCe/SjyGz2WsCsZvxgkEmhMHGy2ZgF0SKyQJADjzWciNGzM0KjSELnvxLvaKRU6tJelyBp9IYtsKkTiZlA9yD0RRS97VRRq5NhqbqKtpuHmcqG9LOaEuk9N7iFxTYNygMQgVoF4qpoa13zTUr8jBobhxAK3QXOoqXHNNw2a9MTlAjQs5kg+fDX1wAZuJLQAGbtup4blGMdCQjLSzLiGxnxNFLpR9MAYIHN7RlSih6nwy9KUaa+LQjcKoZi7Boxhz4r+EIW+P4f0rK1mlmpg2hsi/0ZdLcm88L0w7HNR6DtzqrnKCBr3ZZF/o77mVMthFv77n0Sh7yqlrTMNGtsIirELZn0hCv370mom7cdNvCUK3WRIocEcJSmMF1+J9A28lqThsZllGtzE3MkujFOjXhKVTDKmqEnT+lL+If0c+Dur0vpjU+HxrMi/0ZbUpGnvivwbbUkaHjHnbMa0N0X+jbYk7WlNmfaeyL/RFoV5WjOmvS8K3WRLwh7IpspYH4hCN9qCNDQ2V+X/UOTfbCty52jN7BOBaV+L/JttRdrTsMzUxHgGcCOxHzOyIt1LibW0praHw7Qpr8iqUW5obGY8AzDtB5F/wy2pmfmZgptJ+QBEKWkvw4aepnoZaL2nNbV1TsENWVthXivdE4Je1syE2sff91izNCxiMg3DmutlLrg5ZFm4YZ3b1CY1DEJYbOqhiyFc81I8M5ZDMAybi7YO1zwdI6zK7WF4FqH5sDiGa56+EsuS/JC49Ya5uObp299Ly40AWxsSp+CaVyphccdapPUwjOeFTMA1L9deR/+XBD8fhWAaNpMSYRO9i2ZFwDXvWnddKzfJgGAWCgEwCz+PRGJt2PRDICobGLO0Z9GshKw1D0Zh9xQyQhqVGde8K911qppbUqkN17w5k3TOvQywxLytKfxaZ655NM4YSDpgzNg8jxhkzDzM04hRhsxLfQwUWYma51dYMBYS44TMw9+RClDzVGtPEyIeN3TX2BwX4TQGkohUxgHXPBSVSURSGgfUPDzpSSqEi6JROXDgf0t4B6rJoMchAAAAAElFTkSuQmCC;" vertex="1" parent="1">
          <mxGeometry x="601.48" y="112.52000000000001" width="16.48" height="38.5" as="geometry" />
        </mxCell>
        <mxCell id="8s2ToU_CGryy-fiqALUz-28" value="" style="shape=image;verticalLabelPosition=bottom;labelBackgroundColor=default;verticalAlign=top;aspect=fixed;imageAspect=0;image=data:image/png,iVBORw0KGgoAAAANSUhEUgAAAG4AAAEBCAYAAACZjpDAAAAAAXNSR0IArs4c6QAAAARnQU1BAACxjwv8YQUAAAAJcEhZcwAAFiUAABYlAUlSJPAAAAtHSURBVHhe7Z1dr15DFMdbJNxIeumC6L2mSG9coRcSd/oN+Aj1CfAJxKWr8gnUSxARJZUoEVpEiAiKuHChir54X//n7HUyZ87s93lZM8//l/yznzb6HHv+Z9asWTN79o0H1vOY6AXRg6KHRfeKDosOicCl7koicrC7ruGk6Omdj71cFH0kgokXRG+LzotIQZ4U/bdQ6Kn49+itJDOnRCFTlohGZgSNHTJhrb4TIQRjvCQJOCMKNXxMnRVhLNWEh0TgY1GosVMJPRyZLFnJN6JQA+fQWDZLBvhFFGrUnOJYuIBQQ5YSDZwIGgkNdrW7WhENHOEeERrqSne1JhjITDQAJspooOvd1aJQZmMW6nFChMb5p7taFmqjzYTPG7rrUjQMrf2eHNwtwtSliSlELONqAhWYT0UYn6tlG40DR0So+FTb+9Yad2d3rRX0Pox91fW+be1xLhj70PuqyjxrSCpygXXFJhKXKeReGcghbK0wH0kYKvdzVIQ9MqZX4Rkqw9wqwgIxkpcmCYWa1oQ9ME2hKwM1lLvWqqmkRVcGtkUInWZYs5P5mug2EdbibhJhXGgZRBgkLM9v/lSYGDuZXXBz6InINvEZlRVcj4laMRa7sI/vfCxHbOOG0N9YVCoeEt0lqpV3REWnCzmNC4H1PPTQB0Sm500BUOPEAy5EwLwpxwbbWDKVsFgBJmI8CTWYJaHGSQIg0YGJ34pCDWdB3NMyAsbBmE8HxRTGazICEhqLBla3IFsKTDHWPFgZW9gKiP8nMgOMg6HGzC0810dmgkTGQgjlNGEhGGtKr843u5aXA6TpWM0ONWwOMVlZSakEBjunyUrw24/6YqiBU2prdo6lBg0ZauCUqq2AbhY05K8iNOq/3TWl8LNa3BFXBDRkqjNaQuIUITI5J+6sZ0YGiYuGzpTCzyCRQejUrDPluMf1uwTAvBwr8CxEJyJ1vZOJSkJSV1uYqCQEtc5Qo8cQy2GJwWQ91PAxxL0qiUllHqYHTFQSk8o8Tg8ykKLKclk0u9fFeO/ANnFOhPCG9yvE4mYRvhObf0liYk8VWArLSOxJOjPMjMRcFuKrbDKC2mbM3WTsdRlBRhgyYYlYTclMzDkea5iZ0U1Ia48P4cpBAWIlKyyDZSZWssLt6wWIkazg7SmkADrerdm7wnBZiLUhk1vXC7E2ZDJcFmTtcwoMlwVZ8349LrIWZE1VpbfwzIXU9OBgHczv7tv8aR63iHAYAHZYkwLAOBgQ6lVjYrgszNI9mswuDTA3UdEJ/L7sksfX5+Xx7gozpqDniSLBIYVZUlHhOGcAPEQJM+as23GcM8KSdTtWUQywpI65ZyMRk5MyYFL+3M7HyeDAcWIAHeumrtlxnDPE3HkdKjDEAHOrKZzPGWLO6e67m4iYnJRnTpLCUGkImBHqXSFh/kcMMfWRLWaWxpjT6zbhkmOcDbBFAUnKFDalL25dsAOWcKY8W/6l6Bx7nB00u0QlZQiGSmNouBzzBG+8pHHGeKq7DsG5nEE0uxxaZOXjxkYZKzxzLmeUscIzjTOKhsuhdbpDTE7sgewSW84HX/VN42wydiDbYRpnE7zZfwiGSqNoj+urotA4o4xVURgqDXO6uwahcXYZHOdonF0GxzkaZ5ehce4SjbNN7zhH42zT+xZ/Gmebvn0oDJXG0QQFheU90DjbIEGB9hWcaZx9QuGSobICgisFNM4+ode3sMdVQOgcL4x7xDi6lcHV4cHlcWIGfzpwkKGyDvaFRhpXB+6UYPOZxtXHpvfRuDpwQyWNqwiGykphclIpbvWEobIi3FC5MZHG1YEbKjnGVYR7yChDZUVsnvvuoHEVsa/HkTpAQrK7MoC/IPbRk2RVPOekEmCcC8e4SnBDozufI8Zxj8/AW0I2sMfZBuNZMKOkcbbxD8+mcZXwaHdVaFwlHOuuCo2rAEwD7tj5uMvu8g6Ns4s7vl3rrrvTARpnF/clSNe7626oJDbBNAAm6fztandlndI4J0RqmqtNnZLYJfRGR54Maxz0qssi/7zK3XIXYHJiD5wQe6vIfyBnT2JC4+zxSHf12bMyQONsgayx7+V+7HGG2fPmYY+xw0dJQc6I3IQE+rO7cg5nlL65G7TvyHqGSjv4Szgu3LJglLF3gj8t2gN7nA0QJkHfYQoXuisxhFZKQj0NqwK4qrHEEE+KfMNUf3VXZpTGQG+7KPINc7WnRqlwjCsLqiT+9gQfZpTGQG/7RBTqZa6GqimkACdFIaNUmphwfDMEetv3It8sX8HxDXCMKwN62+07HwcZex0ZyQh6m/ugYkh/d1fO3wwxNG9Tcf5mDBjRVyXx1Tu+AY5xeXlChP0kU+D4ZoSh9TZX+vL2vi0MJCNISD4V+Sb1aTBMAobKPCBEHtn5OIkXuyspCELebyINgUPS/SX+SQskMwiR2J3lGzSk0TAJGCrTggrJ/TsfJ8MwWRiEu6lzNkirJZx0FwQhEvtEfHPGhKd0JsFQmQZkkUd3Ps6Cu5ULoutsU7JIV9j0ip5KCjB3XHOF4jMpAHrLlK0IvpiUFOaUyDdlqiYnJSQuY/tH+qRbzllQLgB2YaGk5ZsyVXi0imRmTTKiWSe3J2QGprmHyCwRjsDgFCAjyADHto4PSXsbxkaSiSUV/5DY2zKChg6d+jNHOm/j1vJMxDBNxUwyEzDttChkwhxxI1BGYBoWN30TlopVkgzAtCX1x5B0bGNvSwxS/vMi34A1Ym9LDCbXa+ZpIWGyzhWAhCCULS1jhcTJdgbQuL+L/MZfK6b/iUASsmY9bUh4Fg6hl0QGpr0iQiP3Hcm0RJpFcktCAjCe/SjyGz2WsCsZvxgkEmhMHGy2ZgF0SKyQJADjzWciNGzM0KjSELnvxLvaKRU6tJelyBp9IYtsKkTiZlA9yD0RRS97VRRq5NhqbqKtpuHmcqG9LOaEuk9N7iFxTYNygMQgVoF4qpoa13zTUr8jBobhxAK3QXOoqXHNNw2a9MTlAjQs5kg+fDX1wAZuJLQAGbtup4blGMdCQjLSzLiGxnxNFLpR9MAYIHN7RlSih6nwy9KUaa+LQjcKoZi7Boxhz4r+EIW+P4f0rK1mlmpg2hsi/0ZdLcm88L0w7HNR6DtzqrnKCBr3ZZF/o77mVMthFv77n0Sh7yqlrTMNGtsIirELZn0hCv370mom7cdNvCUK3WRIocEcJSmMF1+J9A28lqThsZllGtzE3MkujFOjXhKVTDKmqEnT+lL+If0c+Dur0vpjU+HxrMi/0ZbUpGnvivwbbUkaHjHnbMa0N0X+jbYk7WlNmfaeyL/RFoV5WjOmvS8K3WRLwh7IpspYH4hCN9qCNDQ2V+X/UOTfbCty52jN7BOBaV+L/JttRdrTsMzUxHgGcCOxHzOyIt1LibW0praHw7Qpr8iqUW5obGY8AzDtB5F/wy2pmfmZgptJ+QBEKWkvw4aepnoZaL2nNbV1TsENWVthXivdE4Je1syE2sff91izNCxiMg3DmutlLrg5ZFm4YZ3b1CY1DEJYbOqhiyFc81I8M5ZDMAybi7YO1zwdI6zK7WF4FqH5sDiGa56+EsuS/JC49Ya5uObp299Ly40AWxsSp+CaVyphccdapPUwjOeFTMA1L9deR/+XBD8fhWAaNpMSYRO9i2ZFwDXvWnddKzfJgGAWCgEwCz+PRGJt2PRDICobGLO0Z9GshKw1D0Zh9xQyQhqVGde8K911qppbUqkN17w5k3TOvQywxLytKfxaZ655NM4YSDpgzNg8jxhkzDzM04hRhsxLfQwUWYma51dYMBYS44TMw9+RClDzVGtPEyIeN3TX2BwX4TQGkohUxgHXPBSVSURSGgfUPDzpSSqEi6JROXDgf0t4B6rJoMchAAAAAElFTkSuQmCC;" vertex="1" parent="1">
          <mxGeometry x="566.61" y="335.39" width="16.48" height="38.5" as="geometry" />
        </mxCell>
        <mxCell id="8s2ToU_CGryy-fiqALUz-30" value="" style="shape=image;verticalLabelPosition=bottom;labelBackgroundColor=default;verticalAlign=top;aspect=fixed;imageAspect=0;image=data:image/png,iVBORw0KGgoAAAANSUhEUgAAAG4AAAEBCAYAAACZjpDAAAAAAXNSR0IArs4c6QAAAARnQU1BAACxjwv8YQUAAAAJcEhZcwAAFiUAABYlAUlSJPAAAAtHSURBVHhe7Z1dr15DFMdbJNxIeumC6L2mSG9coRcSd/oN+Aj1CfAJxKWr8gnUSxARJZUoEVpEiAiKuHChir54X//n7HUyZ87s93lZM8//l/yznzb6HHv+Z9asWTN79o0H1vOY6AXRg6KHRfeKDosOicCl7koicrC7ruGk6Omdj71cFH0kgokXRG+LzotIQZ4U/bdQ6Kn49+itJDOnRCFTlohGZgSNHTJhrb4TIQRjvCQJOCMKNXxMnRVhLNWEh0TgY1GosVMJPRyZLFnJN6JQA+fQWDZLBvhFFGrUnOJYuIBQQ5YSDZwIGgkNdrW7WhENHOEeERrqSne1JhjITDQAJspooOvd1aJQZmMW6nFChMb5p7taFmqjzYTPG7rrUjQMrf2eHNwtwtSliSlELONqAhWYT0UYn6tlG40DR0So+FTb+9Yad2d3rRX0Pox91fW+be1xLhj70PuqyjxrSCpygXXFJhKXKeReGcghbK0wH0kYKvdzVIQ9MqZX4Rkqw9wqwgIxkpcmCYWa1oQ9ME2hKwM1lLvWqqmkRVcGtkUInWZYs5P5mug2EdbibhJhXGgZRBgkLM9v/lSYGDuZXXBz6InINvEZlRVcj4laMRa7sI/vfCxHbOOG0N9YVCoeEt0lqpV3REWnCzmNC4H1PPTQB0Sm500BUOPEAy5EwLwpxwbbWDKVsFgBJmI8CTWYJaHGSQIg0YGJ34pCDWdB3NMyAsbBmE8HxRTGazICEhqLBla3IFsKTDHWPFgZW9gKiP8nMgOMg6HGzC0810dmgkTGQgjlNGEhGGtKr843u5aXA6TpWM0ONWwOMVlZSakEBjunyUrw24/6YqiBU2prdo6lBg0ZauCUqq2AbhY05K8iNOq/3TWl8LNa3BFXBDRkqjNaQuIUITI5J+6sZ0YGiYuGzpTCzyCRQejUrDPluMf1uwTAvBwr8CxEJyJ1vZOJSkJSV1uYqCQEtc5Qo8cQy2GJwWQ91PAxxL0qiUllHqYHTFQSk8o8Tg8ykKLKclk0u9fFeO/ANnFOhPCG9yvE4mYRvhObf0liYk8VWArLSOxJOjPMjMRcFuKrbDKC2mbM3WTsdRlBRhgyYYlYTclMzDkea5iZ0U1Ia48P4cpBAWIlKyyDZSZWssLt6wWIkazg7SmkADrerdm7wnBZiLUhk1vXC7E2ZDJcFmTtcwoMlwVZ8349LrIWZE1VpbfwzIXU9OBgHczv7tv8aR63iHAYAHZYkwLAOBgQ6lVjYrgszNI9mswuDTA3UdEJ/L7sksfX5+Xx7gozpqDniSLBIYVZUlHhOGcAPEQJM+as23GcM8KSdTtWUQywpI65ZyMRk5MyYFL+3M7HyeDAcWIAHeumrtlxnDPE3HkdKjDEAHOrKZzPGWLO6e67m4iYnJRnTpLCUGkImBHqXSFh/kcMMfWRLWaWxpjT6zbhkmOcDbBFAUnKFDalL25dsAOWcKY8W/6l6Bx7nB00u0QlZQiGSmNouBzzBG+8pHHGeKq7DsG5nEE0uxxaZOXjxkYZKzxzLmeUscIzjTOKhsuhdbpDTE7sgewSW84HX/VN42wydiDbYRpnE7zZfwiGSqNoj+urotA4o4xVURgqDXO6uwahcXYZHOdonF0GxzkaZ5ehce4SjbNN7zhH42zT+xZ/Gmebvn0oDJXG0QQFheU90DjbIEGB9hWcaZx9QuGSobICgisFNM4+ode3sMdVQOgcL4x7xDi6lcHV4cHlcWIGfzpwkKGyDvaFRhpXB+6UYPOZxtXHpvfRuDpwQyWNqwiGykphclIpbvWEobIi3FC5MZHG1YEbKjnGVYR7yChDZUVsnvvuoHEVsa/HkTpAQrK7MoC/IPbRk2RVPOekEmCcC8e4SnBDozufI8Zxj8/AW0I2sMfZBuNZMKOkcbbxD8+mcZXwaHdVaFwlHOuuCo2rAEwD7tj5uMvu8g6Ns4s7vl3rrrvTARpnF/clSNe7626oJDbBNAAm6fztandlndI4J0RqmqtNnZLYJfRGR54Maxz0qssi/7zK3XIXYHJiD5wQe6vIfyBnT2JC4+zxSHf12bMyQONsgayx7+V+7HGG2fPmYY+xw0dJQc6I3IQE+rO7cg5nlL65G7TvyHqGSjv4Szgu3LJglLF3gj8t2gN7nA0QJkHfYQoXuisxhFZKQj0NqwK4qrHEEE+KfMNUf3VXZpTGQG+7KPINc7WnRqlwjCsLqiT+9gQfZpTGQG/7RBTqZa6GqimkACdFIaNUmphwfDMEetv3It8sX8HxDXCMKwN62+07HwcZex0ZyQh6m/ugYkh/d1fO3wwxNG9Tcf5mDBjRVyXx1Tu+AY5xeXlChP0kU+D4ZoSh9TZX+vL2vi0MJCNISD4V+Sb1aTBMAobKPCBEHtn5OIkXuyspCELebyINgUPS/SX+SQskMwiR2J3lGzSk0TAJGCrTggrJ/TsfJ8MwWRiEu6lzNkirJZx0FwQhEvtEfHPGhKd0JsFQmQZkkUd3Ps6Cu5ULoutsU7JIV9j0ip5KCjB3XHOF4jMpAHrLlK0IvpiUFOaUyDdlqiYnJSQuY/tH+qRbzllQLgB2YaGk5ZsyVXi0imRmTTKiWSe3J2QGprmHyCwRjsDgFCAjyADHto4PSXsbxkaSiSUV/5DY2zKChg6d+jNHOm/j1vJMxDBNxUwyEzDttChkwhxxI1BGYBoWN30TlopVkgzAtCX1x5B0bGNvSwxS/vMi34A1Ym9LDCbXa+ZpIWGyzhWAhCCULS1jhcTJdgbQuL+L/MZfK6b/iUASsmY9bUh4Fg6hl0QGpr0iQiP3Hcm0RJpFcktCAjCe/SjyGz2WsCsZvxgkEmhMHGy2ZgF0SKyQJADjzWciNGzM0KjSELnvxLvaKRU6tJelyBp9IYtsKkTiZlA9yD0RRS97VRRq5NhqbqKtpuHmcqG9LOaEuk9N7iFxTYNygMQgVoF4qpoa13zTUr8jBobhxAK3QXOoqXHNNw2a9MTlAjQs5kg+fDX1wAZuJLQAGbtup4blGMdCQjLSzLiGxnxNFLpR9MAYIHN7RlSih6nwy9KUaa+LQjcKoZi7Boxhz4r+EIW+P4f0rK1mlmpg2hsi/0ZdLcm88L0w7HNR6DtzqrnKCBr3ZZF/o77mVMthFv77n0Sh7yqlrTMNGtsIirELZn0hCv370mom7cdNvCUK3WRIocEcJSmMF1+J9A28lqThsZllGtzE3MkujFOjXhKVTDKmqEnT+lL+If0c+Dur0vpjU+HxrMi/0ZbUpGnvivwbbUkaHjHnbMa0N0X+jbYk7WlNmfaeyL/RFoV5WjOmvS8K3WRLwh7IpspYH4hCN9qCNDQ2V+X/UOTfbCty52jN7BOBaV+L/JttRdrTsMzUxHgGcCOxHzOyIt1LibW0praHw7Qpr8iqUW5obGY8AzDtB5F/wy2pmfmZgptJ+QBEKWkvw4aepnoZaL2nNbV1TsENWVthXivdE4Je1syE2sff91izNCxiMg3DmutlLrg5ZFm4YZ3b1CY1DEJYbOqhiyFc81I8M5ZDMAybi7YO1zwdI6zK7WF4FqH5sDiGa56+EsuS/JC49Ya5uObp299Ly40AWxsSp+CaVyphccdapPUwjOeFTMA1L9deR/+XBD8fhWAaNpMSYRO9i2ZFwDXvWnddKzfJgGAWCgEwCz+PRGJt2PRDICobGLO0Z9GshKw1D0Zh9xQyQhqVGde8K911qppbUqkN17w5k3TOvQywxLytKfxaZ655NM4YSDpgzNg8jxhkzDzM04hRhsxLfQwUWYma51dYMBYS44TMw9+RClDzVGtPEyIeN3TX2BwX4TQGkohUxgHXPBSVSURSGgfUPDzpSSqEi6JROXDgf0t4B6rJoMchAAAAAElFTkSuQmCC;" vertex="1" parent="1">
          <mxGeometry x="585" y="261.5" width="16.48" height="38.5" as="geometry" />
        </mxCell>
        <mxCell id="8s2ToU_CGryy-fiqALUz-31" value="" style="shape=image;verticalLabelPosition=bottom;labelBackgroundColor=default;verticalAlign=top;aspect=fixed;imageAspect=0;image=data:image/png,iVBORw0KGgoAAAANSUhEUgAAAG4AAAEBCAYAAACZjpDAAAAAAXNSR0IArs4c6QAAAARnQU1BAACxjwv8YQUAAAAJcEhZcwAAFiUAABYlAUlSJPAAAAtHSURBVHhe7Z1dr15DFMdbJNxIeumC6L2mSG9coRcSd/oN+Aj1CfAJxKWr8gnUSxARJZUoEVpEiAiKuHChir54X//n7HUyZ87s93lZM8//l/yznzb6HHv+Z9asWTN79o0H1vOY6AXRg6KHRfeKDosOicCl7koicrC7ruGk6Omdj71cFH0kgokXRG+LzotIQZ4U/bdQ6Kn49+itJDOnRCFTlohGZgSNHTJhrb4TIQRjvCQJOCMKNXxMnRVhLNWEh0TgY1GosVMJPRyZLFnJN6JQA+fQWDZLBvhFFGrUnOJYuIBQQ5YSDZwIGgkNdrW7WhENHOEeERrqSne1JhjITDQAJspooOvd1aJQZmMW6nFChMb5p7taFmqjzYTPG7rrUjQMrf2eHNwtwtSliSlELONqAhWYT0UYn6tlG40DR0So+FTb+9Yad2d3rRX0Pox91fW+be1xLhj70PuqyjxrSCpygXXFJhKXKeReGcghbK0wH0kYKvdzVIQ9MqZX4Rkqw9wqwgIxkpcmCYWa1oQ9ME2hKwM1lLvWqqmkRVcGtkUInWZYs5P5mug2EdbibhJhXGgZRBgkLM9v/lSYGDuZXXBz6InINvEZlRVcj4laMRa7sI/vfCxHbOOG0N9YVCoeEt0lqpV3REWnCzmNC4H1PPTQB0Sm500BUOPEAy5EwLwpxwbbWDKVsFgBJmI8CTWYJaHGSQIg0YGJ34pCDWdB3NMyAsbBmE8HxRTGazICEhqLBla3IFsKTDHWPFgZW9gKiP8nMgOMg6HGzC0810dmgkTGQgjlNGEhGGtKr843u5aXA6TpWM0ONWwOMVlZSakEBjunyUrw24/6YqiBU2prdo6lBg0ZauCUqq2AbhY05K8iNOq/3TWl8LNa3BFXBDRkqjNaQuIUITI5J+6sZ0YGiYuGzpTCzyCRQejUrDPluMf1uwTAvBwr8CxEJyJ1vZOJSkJSV1uYqCQEtc5Qo8cQy2GJwWQ91PAxxL0qiUllHqYHTFQSk8o8Tg8ykKLKclk0u9fFeO/ANnFOhPCG9yvE4mYRvhObf0liYk8VWArLSOxJOjPMjMRcFuKrbDKC2mbM3WTsdRlBRhgyYYlYTclMzDkea5iZ0U1Ia48P4cpBAWIlKyyDZSZWssLt6wWIkazg7SmkADrerdm7wnBZiLUhk1vXC7E2ZDJcFmTtcwoMlwVZ8349LrIWZE1VpbfwzIXU9OBgHczv7tv8aR63iHAYAHZYkwLAOBgQ6lVjYrgszNI9mswuDTA3UdEJ/L7sksfX5+Xx7gozpqDniSLBIYVZUlHhOGcAPEQJM+as23GcM8KSdTtWUQywpI65ZyMRk5MyYFL+3M7HyeDAcWIAHeumrtlxnDPE3HkdKjDEAHOrKZzPGWLO6e67m4iYnJRnTpLCUGkImBHqXSFh/kcMMfWRLWaWxpjT6zbhkmOcDbBFAUnKFDalL25dsAOWcKY8W/6l6Bx7nB00u0QlZQiGSmNouBzzBG+8pHHGeKq7DsG5nEE0uxxaZOXjxkYZKzxzLmeUscIzjTOKhsuhdbpDTE7sgewSW84HX/VN42wydiDbYRpnE7zZfwiGSqNoj+urotA4o4xVURgqDXO6uwahcXYZHOdonF0GxzkaZ5ehce4SjbNN7zhH42zT+xZ/Gmebvn0oDJXG0QQFheU90DjbIEGB9hWcaZx9QuGSobICgisFNM4+ode3sMdVQOgcL4x7xDi6lcHV4cHlcWIGfzpwkKGyDvaFRhpXB+6UYPOZxtXHpvfRuDpwQyWNqwiGykphclIpbvWEobIi3FC5MZHG1YEbKjnGVYR7yChDZUVsnvvuoHEVsa/HkTpAQrK7MoC/IPbRk2RVPOekEmCcC8e4SnBDozufI8Zxj8/AW0I2sMfZBuNZMKOkcbbxD8+mcZXwaHdVaFwlHOuuCo2rAEwD7tj5uMvu8g6Ns4s7vl3rrrvTARpnF/clSNe7626oJDbBNAAm6fztandlndI4J0RqmqtNnZLYJfRGR54Maxz0qssi/7zK3XIXYHJiD5wQe6vIfyBnT2JC4+zxSHf12bMyQONsgayx7+V+7HGG2fPmYY+xw0dJQc6I3IQE+rO7cg5nlL65G7TvyHqGSjv4Szgu3LJglLF3gj8t2gN7nA0QJkHfYQoXuisxhFZKQj0NqwK4qrHEEE+KfMNUf3VXZpTGQG+7KPINc7WnRqlwjCsLqiT+9gQfZpTGQG/7RBTqZa6GqimkACdFIaNUmphwfDMEetv3It8sX8HxDXCMKwN62+07HwcZex0ZyQh6m/ugYkh/d1fO3wwxNG9Tcf5mDBjRVyXx1Tu+AY5xeXlChP0kU+D4ZoSh9TZX+vL2vi0MJCNISD4V+Sb1aTBMAobKPCBEHtn5OIkXuyspCELebyINgUPS/SX+SQskMwiR2J3lGzSk0TAJGCrTggrJ/TsfJ8MwWRiEu6lzNkirJZx0FwQhEvtEfHPGhKd0JsFQmQZkkUd3Ps6Cu5ULoutsU7JIV9j0ip5KCjB3XHOF4jMpAHrLlK0IvpiUFOaUyDdlqiYnJSQuY/tH+qRbzllQLgB2YaGk5ZsyVXi0imRmTTKiWSe3J2QGprmHyCwRjsDgFCAjyADHto4PSXsbxkaSiSUV/5DY2zKChg6d+jNHOm/j1vJMxDBNxUwyEzDttChkwhxxI1BGYBoWN30TlopVkgzAtCX1x5B0bGNvSwxS/vMi34A1Ym9LDCbXa+ZpIWGyzhWAhCCULS1jhcTJdgbQuL+L/MZfK6b/iUASsmY9bUh4Fg6hl0QGpr0iQiP3Hcm0RJpFcktCAjCe/SjyGz2WsCsZvxgkEmhMHGy2ZgF0SKyQJADjzWciNGzM0KjSELnvxLvaKRU6tJelyBp9IYtsKkTiZlA9yD0RRS97VRRq5NhqbqKtpuHmcqG9LOaEuk9N7iFxTYNygMQgVoF4qpoa13zTUr8jBobhxAK3QXOoqXHNNw2a9MTlAjQs5kg+fDX1wAZuJLQAGbtup4blGMdCQjLSzLiGxnxNFLpR9MAYIHN7RlSih6nwy9KUaa+LQjcKoZi7Boxhz4r+EIW+P4f0rK1mlmpg2hsi/0ZdLcm88L0w7HNR6DtzqrnKCBr3ZZF/o77mVMthFv77n0Sh7yqlrTMNGtsIirELZn0hCv370mom7cdNvCUK3WRIocEcJSmMF1+J9A28lqThsZllGtzE3MkujFOjXhKVTDKmqEnT+lL+If0c+Dur0vpjU+HxrMi/0ZbUpGnvivwbbUkaHjHnbMa0N0X+jbYk7WlNmfaeyL/RFoV5WjOmvS8K3WRLwh7IpspYH4hCN9qCNDQ2V+X/UOTfbCty52jN7BOBaV+L/JttRdrTsMzUxHgGcCOxHzOyIt1LibW0praHw7Qpr8iqUW5obGY8AzDtB5F/wy2pmfmZgptJ+QBEKWkvw4aepnoZaL2nNbV1TsENWVthXivdE4Je1syE2sff91izNCxiMg3DmutlLrg5ZFm4YZ3b1CY1DEJYbOqhiyFc81I8M5ZDMAybi7YO1zwdI6zK7WF4FqH5sDiGa56+EsuS/JC49Ya5uObp299Ly40AWxsSp+CaVyphccdapPUwjOeFTMA1L9deR/+XBD8fhWAaNpMSYRO9i2ZFwDXvWnddKzfJgGAWCgEwCz+PRGJt2PRDICobGLO0Z9GshKw1D0Zh9xQyQhqVGde8K911qppbUqkN17w5k3TOvQywxLytKfxaZ655NM4YSDpgzNg8jxhkzDzM04hRhsxLfQwUWYma51dYMBYS44TMw9+RClDzVGtPEyIeN3TX2BwX4TQGkohUxgHXPBSVSURSGgfUPDzpSSqEi6JROXDgf0t4B6rJoMchAAAAAElFTkSuQmCC;" vertex="1" parent="1">
          <mxGeometry x="568.52" y="407.07" width="16.48" height="38.5" as="geometry" />
        </mxCell>
        <mxCell id="8s2ToU_CGryy-fiqALUz-32" value="" style="html=1;shadow=0;dashed=0;align=center;verticalAlign=middle;shape=mxgraph.arrows2.arrow;dy=0.67;dx=20;notch=0;fillColor=#000000;rotation=60;" vertex="1" parent="1">
          <mxGeometry x="97.16" y="86.59" width="42.07" height="8.86" as="geometry" />
        </mxCell>
        <mxCell id="8s2ToU_CGryy-fiqALUz-38" value="" style="html=1;shadow=0;dashed=0;align=center;verticalAlign=middle;shape=mxgraph.arrows2.arrow;dy=0.67;dx=20;notch=0;fillColor=#000000;rotation=0;" vertex="1" parent="1">
          <mxGeometry x="371.6" y="419.43" width="28.4" height="8.86" as="geometry" />
        </mxCell>
        <mxCell id="8s2ToU_CGryy-fiqALUz-39" value="" style="html=1;shadow=0;dashed=0;align=center;verticalAlign=middle;shape=mxgraph.arrows2.arrow;dy=0.67;dx=20;notch=0;fillColor=#000000;rotation=-60;" vertex="1" parent="1">
          <mxGeometry x="417.99" y="381.79" width="32.39" height="8.86" as="geometry" />
        </mxCell>
        <mxCell id="8s2ToU_CGryy-fiqALUz-43" value="" style="html=1;shadow=0;dashed=0;align=center;verticalAlign=middle;shape=mxgraph.arrows2.arrow;dy=0.67;dx=20;notch=0;fillColor=#000000;rotation=-60;" vertex="1" parent="1">
          <mxGeometry x="473.9" y="197.99" width="123.4" height="15.13" as="geometry" />
        </mxCell>
        <mxCell id="8s2ToU_CGryy-fiqALUz-152" value="" style="html=1;shadow=0;dashed=0;align=center;verticalAlign=middle;shape=mxgraph.arrows2.arrow;dy=0.67;dx=20;notch=0;fillColor=#000000;rotation=60;" vertex="1" parent="1">
          <mxGeometry x="137.16" y="166.59" width="42.07" height="8.86" as="geometry" />
        </mxCell>
        <mxCell id="8s2ToU_CGryy-fiqALUz-153" value="" style="html=1;shadow=0;dashed=0;align=center;verticalAlign=middle;shape=mxgraph.arrows2.arrow;dy=0.67;dx=20;notch=0;fillColor=#000000;rotation=60;" vertex="1" parent="1">
          <mxGeometry x="171.7" y="239.21" width="36.02" height="8.86" as="geometry" />
        </mxCell>
        <mxCell id="8s2ToU_CGryy-fiqALUz-154" value="" style="html=1;shadow=0;dashed=0;align=center;verticalAlign=middle;shape=mxgraph.arrows2.arrow;dy=0.67;dx=20;notch=0;fillColor=#000000;rotation=60;" vertex="1" parent="1">
          <mxGeometry x="211.98" y="309.37" width="35.65" height="8.86" as="geometry" />
        </mxCell>
        <mxCell id="8s2ToU_CGryy-fiqALUz-155" value="" style="html=1;shadow=0;dashed=0;align=center;verticalAlign=middle;shape=mxgraph.arrows2.arrow;dy=0.67;dx=20;notch=0;fillColor=#000000;rotation=60;" vertex="1" parent="1">
          <mxGeometry x="257.92" y="382.8" width="27.72" height="8.86" as="geometry" />
        </mxCell>
        <mxCell id="8s2ToU_CGryy-fiqALUz-206" style="edgeStyle=orthogonalEdgeStyle;rounded=0;orthogonalLoop=1;jettySize=auto;html=1;strokeWidth=7;strokeColor=#A8A8A8;" edge="1" parent="1" source="8s2ToU_CGryy-fiqALUz-198">
          <mxGeometry relative="1" as="geometry">
            <mxPoint x="220" y="190" as="targetPoint" />
          </mxGeometry>
        </mxCell>
        <mxCell id="8s2ToU_CGryy-fiqALUz-198" value="Feedback on&lt;br&gt;RAMS into&amp;nbsp;&lt;br&gt;risk analysis" style="rounded=1;whiteSpace=wrap;html=1;" vertex="1" parent="1">
          <mxGeometry x="358.4" y="5.45" width="91.6" height="74.55" as="geometry" />
        </mxCell>
        <mxCell id="8s2ToU_CGryy-fiqALUz-212" value="Control of&amp;nbsp;&lt;br&gt;RAMS&amp;nbsp;&lt;br&gt;requirements" style="rounded=1;whiteSpace=wrap;html=1;" vertex="1" parent="1">
          <mxGeometry x="10" y="403.86" width="85.75" height="103.68" as="geometry" />
        </mxCell>
        <mxCell id="8s2ToU_CGryy-fiqALUz-222" value="" style="shape=singleArrow;whiteSpace=wrap;html=1;" vertex="1" parent="1">
          <mxGeometry x="95.75" y="411.32" width="44.25" height="30" as="geometry" />
        </mxCell>
        <mxCell id="8s2ToU_CGryy-fiqALUz-223" value="" style="shape=singleArrow;whiteSpace=wrap;html=1;" vertex="1" parent="1">
          <mxGeometry x="95.75" y="480" width="100" height="23.86" as="geometry" />
        </mxCell>
        <mxCell id="8s2ToU_CGryy-fiqALUz-224" value="&lt;b&gt;To :Operation,maintenance and decommissioning&lt;/b&gt;" style="text;strokeColor=none;align=center;fillColor=none;html=1;verticalAlign=middle;whiteSpace=wrap;rounded=0;" vertex="1" parent="1">
          <mxGeometry x="179.23" y="476.93" width="328.3" height="30" as="geometry" />
        </mxCell>
        <mxCell id="8s2ToU_CGryy-fiqALUz-228" value="&lt;b&gt;Validation&lt;/b&gt;" style="text;strokeColor=none;align=center;fillColor=none;html=1;verticalAlign=middle;whiteSpace=wrap;rounded=0;" vertex="1" parent="1">
          <mxGeometry x="331.2" y="248.07" width="60" height="30" as="geometry" />
        </mxCell>
        <mxCell id="8s2ToU_CGryy-fiqALUz-229" value="" style="rounded=1;whiteSpace=wrap;html=1;align=left;" vertex="1" parent="1">
          <mxGeometry x="660" y="220" width="170" height="210" as="geometry" />
        </mxCell>
        <mxCell id="8s2ToU_CGryy-fiqALUz-231" value="&lt;b&gt;&amp;nbsp;Key :&lt;/b&gt;" style="rounded=1;whiteSpace=wrap;html=1;align=left;" vertex="1" parent="1">
          <mxGeometry x="680" y="220" width="130" height="20" as="geometry" />
        </mxCell>
        <mxCell id="8s2ToU_CGryy-fiqALUz-232" value="&lt;b&gt;&amp;nbsp;Verification task :&lt;/b&gt;" style="text;strokeColor=none;align=left;fillColor=none;html=1;verticalAlign=middle;whiteSpace=wrap;rounded=0;" vertex="1" parent="1">
          <mxGeometry x="660" y="248.07" width="110" height="30" as="geometry" />
        </mxCell>
        <mxCell id="8s2ToU_CGryy-fiqALUz-234" value="" style="shape=image;verticalLabelPosition=bottom;labelBackgroundColor=default;verticalAlign=top;aspect=fixed;imageAspect=0;image=data:image/png,iVBORw0KGgoAAAANSUhEUgAAAO0AAACOCAYAAADdLY97AAAAAXNSR0IArs4c6QAAAARnQU1BAACxjwv8YQUAAAAJcEhZcwAAFiUAABYlAUlSJPAAAB1YSURBVHhe7Z19kFXlecDv3Xt3gWWRzUQT/GBE4ozQoGDS6GiTSqIYm7YTkYx2poqYTCZEM3WbKP2jE6lM/imWQWzHmDETS7URHGHXpA0ISTUxgU6aThT5slOMfKnEOBV32cDu3r19fu+e9/Du2XPvPffuOffz+c28no/LyHL2/O7zvN8pJTF6vKOiKA3C/0lZP3aqKEojgLR5KS+YK0WJibR3VOIHabs5SafTP83n84s5rzKLpPAzvGeuzh4the4rdYxKmxxG2nPOOSf1/vvvpzo6OnYNDQ390dhHVaNXys1jp2XxhnNEaCv1Ye/o3ufc/nmlCqi0yWGk3bJlS+quu+4y4maz2X0jIyMLxj6uCkbaj3zkI+ZiYGAglcvlRsyFMDg42OYeYwB5X5aCzK7gblEmiUqbHEba1w4eTJ08eTJ1w5IlRtz29vb9w8PDRFwbvZLESLt69erUNddcM3YnAidOnEidOnXKSG6P9r492vtvv/326G9/+9typLdiv+Kd2+tqPI+mQKVNDl9amyLfsmxZat++fakpU6YcOHPmzLXyedIvakXSVgoyv/7660ZmK7i9fuutt3LvvPNOxtwszItSkJgozbnKHIJKmxzjpAVXXEmVj0uq/Em5nWTKWFVpo4DECH3o0CFzpOzZs8f7NBSkRWAis4osqLTJMUFacMVta2vrHx0d/WO5zYuYBHUnbTF2797tR2lELiFznxQrMqVlUGmTI1RaQNy7vvjF1K5du1KZTKY/l8slJW5DSRsGAhOdicwlRG4ZiVXa5CgorWXZF76QtLgNL20YEUVGYqoez0lpKolV2uQoKS0Qcbdv3+5dpT4tJc4XrCmlDYPUOoLEP5Xyz1Iauk6s0iZHJGmhp6cntfmZZ7yrWMVtGWmDlJCY54vAiJxUe0JiqLTJEVlaCIi7VAov1GRpWWld6FPeuXOnkZfqSACiLtF3o5SGEFilTQbG+/6GY1Rp4QGR6/HHH/euUndJ4WWaDCptCERhBN6xY4cR2gFpqQPz3JPsipsUKm3lICYD8ud45TrvHudmogCUIy2sW7cu9Q9SPP5aysNjpxWh0pbAps+9vb15Edj1gUzHClxXqLTFsUIi58XecYKYQaZPnz5y4YUXjs695JL2DRs2pMuRFmIUV6UtAyIw6TOpdACe/wYpdRF9VdoxbNSkEDGtrMXEzM2ePTs/Z86c7IKPfjR10ezZKY5yr6zIWgjqt9RzPR6U8ndjp2Wh0lZIX1+fETjQiEUDFnXfmkbfVpQ2TFDOJzBjxozRyy+/vG32RRcZGT/qSRmXmKXYJd/8y5Yt864qElelnST0CRN5n3rqKe+Ogbovkbcm8raCtEjKBHTE/LyUCRG0S6LmgssvT1tBr7322qqJWYqAuNSzaFmOikobI0RfqfsakR2qnjo3o7RWUqKoldWnq6srd8UVV2RM1KwzQQsREJcUjb7cKKi0CUDdF3kDqTPy0v6QOM0grU13EZRIGirptfLS3nTTTXUvaCGYYMCcXI+o4qq0CYK0pM6Bhqs4uuqK0qjS2miKpCyn4qe7zSJpGIi79JZbRvv7+5l0HkVclbYKMA76scce8yNvOp3ek8/nWYkzEXkbSVrEXCHlTnkol8hDmWnuCvPnzct98lOfytx2661NJWkYnrh5EZffHQ0iV5oPwlFpqwhpM/I6dV5+P0TeWEda1bu0NqKuluI3INlWXRtNqZ+2EkePHjUTDRBY4IUg4oYNgldpa0BIg1Ws9d16lBYxqZfeKwVhjaj0iy5cuDBz02c/m7rtttuaOppGgTm5S5cuHd1/4ACpMi2XRNyguCptDfnOd75j5AXJDl+R7JBMcdJRt56kJZKa9Nc7p346KvXTNhU1HHcVDAFhibjuS6HS1hjquw8++GCsUbfW0tqoulq+iT4m30TGyquvvjr3p5/7XMY2JCmFKSGuSlsnuFFX4PdDf3tFfbu1khZZGaPnd9HYVt818q3UanXUOLhs3jwjsHz5HZYvP54pAqu0dUQg6vL7QVx6AcoirkWqo4KsDMVj2hqNS4sQFFH/+1e/ymx59lkVtgKYYICwU6dOPSPC8mUYrNsqdcDcuXNTGzduNAN6BFxgn6eyd1eslrT8gOslCpAOIGs3Pzir7/94587Ul7/8Za2vVgjzb5kRhLDyDOleiGPyvJIgDzzwAI2I3pXZWbGsMeVJp8fISn31LtuviqyaAscDwjJxHmHPPffcLx07duxfvY8sJj3mmfMtL1UQWuHHPhGKXXMO7udKvNA1RL+uR+ThqUlJi6y0BJuoKi+AaQVWWePDCgvt7e1fGh4e/p65GI+Rdux0ckybNm2ks7Nz9MMf/nC6u7u7HZnl3C9IzlElLw9GUa1atcq7ijYhJAlp6Vsl5JsGJo2s8WNTYuqxc+bM6XnjjTeYZRIGvwt+D3yJAtmOPQfOC10Hj5H54Ac/ODxr1qz0zJkzs2FyE/WVs9BAdffdd3tXpbuE4pTWdN1IMd/s8+fPz626/37TbaPEB5PjqRMhrEiw/sSJE1/3PkoaK7gdmWbPWdHD3rPHknzoQx8avfTSS9sQGJnZ2a+VZQ5E3KKTDuKSllSY6Gr2Y73vG9/QwRAJ4Aor9dhHT58+fY/3Ub2BvIXktiUUV2apUvkRuhVg7DJdQh6kyaGNipOVll/IE1JMdCUVfuJ731NZE4DBEwyi8CLsRomwfFE2MohLdkZZ6B0Lysy7ZVNtZKY0I7ZxKp1On/T62ycMwJiMtCvkf/wwrcI0NH3rW99qY5aNEj+usBdccMGTb7755nLvo2bETrVEYHe9rgkgLmm1lbhZGsHWrFlj12cObZiqRFoeKHVX0ynMN+DD69frcMOEcIX1UuK/ldutOHjCymyjMo1s4xBp8/I+phGZEWCNmlazFrOzUsmENLlcaf10WB7QyN+sWpVlYISSDK6w58+a9cO33n6bCKujnc6CyAhslxYaB9ISVIjCjTaMk9UwGOkm8Pv+ACeWcqTl4dDvN4f5rI9s2NCmLcPJwZxZdtXjeN555/3snXfeYZy2ClscG4GR2LSzuCAwDVxLlixpiCh8zz33mP2IBFqSaVE2RJWWh8E4yW76W2ls0nQ4OVxhs9nsPm/HeBW2fApGYlsfRuB67WpiYsGddzJTNXVSClmuIYq0i9Lp9Is0OBFZNzz8sLYOJwipsJ1q19XV9b8DAwOfkNsqbDwgMRnLuJZ3m0aTQiNzPYG03qwgv++2lLS+sLQM06qlwoaDbERGvxw7ZsRj5lJU+H/YHeKlCnKov7//D+W2CpsMCEwERmA/itlGLAb010NrtFO39VuSi0nrp8Qq7BhhYr766quj77777tDx48czg4OD7d4f9Ym6ARf/73t7eswG01OnTj14+vRpWk5U2Opg02iWOPIFttGXFLpWBFqSL5HyRiFp+cERdlGrCVsoYr77u98Ny3laxMx6fzQIglFYlYAOcfMNHkVaV1ipwx736rAVrWqgTJrQFJrIe/PNN9ekAYtI662tbDZjKyQtQxJ7aHTaumVL0wprBSUdRc5dv/hF/vCRI6NSj8x4fyQIUiKTLYelIKm970bGSJtKu8JOmTLl7TNnzhBhVdj6gLEIRF9/cAfR9/bbb69q4xX7CHl7CZn9nMKk5Qdd39XVlevr7TXbZzQLREwr6M9feil35OhR9iQNRs5yxCxGSWkRlrHEjClub28/NTw8TIS16zsp9QMtzzTj+tGXBivS5mqkzs6YZFOvDUrLN8qvpXQzna7RB05YSTlu2749L5IE/72uoK9I4aGUI2YxSkrLVpYIm8lkBnK53J/LrbLXC1KqCn6QPpOJGmi4Im1OUl5n6h5f6FcGX2JGO61AVqRtNKyk259/PrV3795CkiJG3IKGUVRaJrAzL1bqsANSh71Dbo0bqqbUPeNSZ9Jl6r1JyOs0RvGufsB9qUkBXpAXLP/jnTvTjTB4gvRyr4i6W0Tdtm1bft/+/YUk/al3rGbqWVBau9O7lxLfLrdU2MZlnLxJRV5n9GHafclpLV7MXNhvSKlXEHXz5s0mmu7ZsycXaDSykj4nBUFrWT8MldYuE9PR0TE4NDT0l3JLhW0OxslLg9VXvvKVWFqbnZFR4EtLH9Wvebn+65e/LFgHqxVWVOp/hw8fpnXXXUXSRtKk091ymSCtFdaLsF+TW4luiajUBNOQO3aaMi3NlMkQWI4mbV9+Ktd1tdoEotINwp6sH/v4x3O87NRZRdj35WNEZVgXnc2sYMcSlETVehF2Au5CbCpsU8MaT8zKMb9fumq++tWvjtICXCnyzntnY9hIy+Lhc1iHmJ3oagm7nj8jUfXff/QjP/X1ZvHTqk3ay8OoWzkd/EhLliB1WNswZjrI+QNK00MGa2bGcUFDFSlzuTj9tGDSYz815gWrBURVIhGiHjhwoJFFdTHS0gpvV04UTOc4J0pL4afMc+fOzd93333pcgZnsOCb3bBaMNKa/2EtunmIqqTAmzZtsrubA/XSjVIQlfNGxUjLl6EnbKx7lCoNx7iou3LlStPKXIpAfRZMnZblO6q6LjGyUlel74kIK8L2y23qqdRP2WeVaNTIwvqosIoHbS60wZi6Lou3Maa/FE6E9UFaM6thZsINULy8rqw0KgmkvIR3+ogRFnEbLQ0uhQqruNCAalahYCCQs9bxBBhUsWPHjrx36YO0JlwnNZjC1lclFcg5shJFeZH55rEtv80I36qNN7RMSRreiytptyGSSvrLGPixTxyY2SPpcTqYBfuRNomuHhtZ6eo4cPAgDUxEUmQlBSYCNVtUdeEXw7+1mf+NSuW8nM/nCZgvI+by5cvz1F8tSNzb22uiLAOeXM6mxzPNpnax4KbBTH0TbL8qM++bXVYLEVaFVYrB+2GqhSJpmpk8NuKya/yJEyfSjKwKLqCItLGBoETVQJ2VaIOsRJ5WeolVWCUKVtyXGa54//3350mZt27dmuPDsCHFdPmEjpEtF+qtzgACfhAiTauJqiiV4q8WY64Etxv2/AsuMEfBH8ZYMURUFiMjwnrCkgq3Qp1VUeLERlwDaXGwLmuZlLQM4L956dIcAyQE/lLqrfzFTdHHqihVxoyaIuMttpFdRdLSjUN0ZeUFb3ww0dXvOFYUpWzo+lzB7h2l1hYvW1rS4U9/5jNh0VVTYUWpDIRdHXW7nbKkpSuHQRJvvvkm0ZUBEdRdNboqSuUYYdkuNur+WJGlpXX4jjvuGB44dQphmXCudVdFqRxai5lAsFpS4fw/PvJI5A3tIkmLsLQOeyvo235XTYcVpTIWtbW1sdrKzQgrddh0VGGhpLRWWPlLmK5C/ZWuHEVRKmOxuPSz0dHRKxhTzCKK5QgLRaV1hZW/hEWrtP6qKJVBOrxeXPqBuDSDflh276hkok5Baa2woMIqyqRYnMlkfibHnukCo5yK9cOWIlRaunX+fu3aEe+SlFiFVZTyMdE1m83+MJfLXU463Lt1axvDEysVFiZIy8CJe772tZFTZ/e40RZiRSkfs/i/lJ7Ozk4TXUmH41ghZoK0bAj12muvZZ1FlscNYlYUpShWVuMNkoqs6clGV5dx0jLKifHE8s0wulrqs3Zrg3Q6TfO0iqsohfFTYTkuRtA4o6vLOGmlHmvm8C1fvryNJR6Zy0crVz6f5ytCI64SFV7gVsG2Ch+RY8+0adM6mZ3DTh1xRlcXX1oW1D548GCGtNjdPIh0GXEFfjjWIS697qPSyvCe8AXf7LBUzPpMJmNktd04NDQR7OKUlXYmDzOgyZf2oYceGuXIviPTp0839yyIy+roHgy9Yq1kRQmCsGyX2swZGXVWZH1VjkTW6cj64507U1uefTaRpYi9JZvANAr70vYPDLTZ3a3DYDsDZyMh5v35mwwpimCFbcZMjH8bspJpkkXQ39rFSKa+3t62pGS1nCwUaQFpi4G0a9eu9a5MtOUfofVcpVmFJQW2S/yaNh3SXuqsRFYGSCQpq6VgpIUoG+Ei9qOPPmp2vhYQFnE1XW5dfGHlhZ6wsHYD4kdVLwVmWODFpMC0BtPARJ21mpuue3PX4TD/8aVlB+uoG+AiLOI69VxSZeQ1C58rLQMvOL97hDX9keZu42FFXZ9Op4lmJqraFNjWV5NqDS6Ft7IpmJGJvrTXVLDFJfVc0mWv4Yqoy5aZWtdtHfhds0QK08uqkirGiC9qW1sbEczUVfP5/Ew3qlYrBS4EUdZLj0nRx6fHRNpKIF1mX1sntbZ13RXmSmlWjLBEnkc2bCh7elmNQFTq3U9IRH1FjkbU0dHRcxDV1lVrGVWDOFGWLV8N/rrHRMxSDVGlYFsDVkln0WUPVrhg0ryOX24uzPaoYWsauevzesdaQwZIRL1T6qiX5nK5LnNXIIL+ifzs/Pz1mCUQYT9z/fV2c3WWdjJ7XvnSbty4MXKdthR9fX1mKz8Hlbd5KCgs1IG0Nu29riObXTI0MuLbSORcsGBB6lqpCtarqC6sdsqwYoG6LLPtDL60pLjBQRWTJURe/nKWTFd5GxMjLCcPSx32tltv5XQcNZCWSEq5bsqUKVedOXPmD8xdD0Ql9UVSomo9pLxRIC1mTfHBwcFTkr5fJ7f8nSV5sKav1enGiRU2FEJctu1zIPJukMJ6yUpjUFJYSFhaoqhNd6/r6Og4b2hoaFy4DEZTumYaRVSLXVec/WuFCfsb82CpjC+Oo05bDOq5Tz31VFBevj2QVyfZ1zcr2tvb/2l4eNjMC6WRphAxSmsFpXx+6tSps06fPj2PD1xsJF0gqW6jShpk3bp17IvFMk9HJMoulFvjFlHkwfLt2bNy5UrWNDY3kyaYNqfT6cP5fB5xdf+f+mOFvDyPMCAeWZG2GGVKa8Wkf5+yUP6uufI+XJLL5WbI9ThsFKUuSkHUeq+XlgtdPH91772jAwMD/eIEPTBkpePgwZrFkhmi6IwtrgrI6+3D6d0x8EPSvK3Rt/Yszmaz/zYyMjI9irAQIu04MTOZzPUStc+V/+ds/r/8gTDCBG2GKFoMWouvv+GG0f7+frpiedi4OQEeLOG1l5ZjWpBrwe7du03+HkidgchL+qwNV9WHtXlZ6jNShLVYaTs7O/9H0ukLSanNjRAQEBEpSHmRd2x2OcOgHnvL2X2dCVz+cMMg9tsQKS6Os9unUgpEXxqsWD2Df4zfiqYkxiKJsC9JJOwqR1i4bN48d/6nihkBI+wtt+T37d+Pj7zfRffGstKaei1jiRmaWA+wGzYRGIED2JEspAUqcPwskhT2JQYh0EK8Zs2asuRi6V0rqYpZmkCELSksWGmpb/yGflr6a+sN5EXiHTt2mC4kB/5x1H1tFFYmx5yOjo5dQ0ND51cirFIeiErXjjO2ONLuk1ZaYLD/HKYdRZmiVyuKCAyISyTWNLp8fGFp+GFBMhU2OdiBcsWKFbbRKbKw4EprGqQk2uYl2rr36xbkdUsIyEsUpk6sEheme9q0af/5+9///jIVNnmoQqx96CE7pph3s6wN7YJymoEWRFoibqNRIgqDjcQ8KB2NNUZ3V1fXDnmBPqHCJgv1VwZNIK0HvSO08kUWFoLSmrotJ0kNa6wWtD4jMDOPOB46dMj7ZBy0mhOBrchct1L3Unc2m31yZGTkz1TYZCEdZgIA9dd0On0yn88zLLSisQhhabAZbFHLftskIPJaeTlSikBE5tuPydHNKnP3jBkznpE61RJaeZlDylGJFxtdv//979utdggSzNipuLpWqO5qJhEwFtlZyK3pQFwiso3K9rwIVmYiMw+dUlZqUyd0T58+fbO8RDeqsMlBdP3mN7+Z379/fzqTyfTncrkH5DbRdVLvTCFpSZMRt5vB2Kx73EpQN5Y6nkmtbWQuhqQ7RyTdeV1O+WXYCG2jM9cVf6smQLf8vBvk511OKkxKTGqsxAcp8OPf/a5bd510dHUpJC0wXhRxzQJu9TLoolbY9JpIjMg2OpdDW1vbUeSWwhxmV24rO4Qd7fmk6ezsfHpwcPAvEPaJJ54wU9iUeLCp8NNPP21ahuX3zWbsrOY46ejqUkxaYN4iLcqmNbme+29rCQITle05UZqjW+JC0qwBOZgXQCKmGS8ox/eGh4eHvPuk7qEDzSUl/rZ8+axEWBZiC646oVQGsm7bvt3s0nH8+HG77hptIUTX2NtCSkkLvri1mAnUTCCvldu2ZnOPKI7owDnYa472XkR4WeioD2IaGFXY+EBW9sBiSRhnATaeP5PWE6sSRZEWmNfHgtRmonwzN07VO4UEJ1VnkQGJxD/P5XKfMh94TJ069f7Tp0+vVWHjAVmprz69aVMwstLdkviU0qjSgh9xWW7VWe9YqQOQdtWqVROkzWazXx8ZGVmHsIwlLrRMjFIaW2fdtGlTvr+/37pjZbU9C4njr3scAX64K6X+tIfUbvny5Xmb6il1Sw/CcqLCVg5dNwzs/8RVV+WJsJ6wthpCibWhqRTlSAsv5/N5VoZ7UVKz9N13321SMqV+kCg74p2yYgS/K0Y55ZnDqkSHqMpaTTcsWZJatmyZWQZGqiH98pEJXlKQlfOqU056HMTMweWEdJnW5UYe9tjoFEqPBTOenK07erduTWufbGEQde++falnNm9O/WjbNjsDB2gBtvXV2FuDy2Uy0sIiSZf7JPpezIW2LteOItICKwmYVfuYL619s2exohJJaQnmGuS9Znww4xQY0F9XI98mK61Fo26NKSEt0Ppv9ldqdXEDoubl2vWAlJfpnHURVcOIS1pgBBXf6AyBNAMxiLq1XnOqVbDSCraBJAxfXHaDa6WuH0Rl8UD6VDnaiOphRaUFuJ6GnIYSp7QWfyV60CGQ1SFCpLX4WVGxnQIaHRtNd4ugjFY6fPgwawm7Da/IyVK9DSGqSxLSAi2XvBz+dpcqb7KUIS2Y0VGclNoxoFGwku7buze1/fnnU3vlGIim1EmtqETWhhLVJSlpLaTM90pReROmTGmhocV1Iyn9qHtffTX//tkBDxbERFBE5bxuGpMmQ9LSWsbVdwF52YZE67zxUIG04A9PZUPlel1iCEGZ7kZd9OixY2NHuQ5EUrCSuvOdm45qSWuh2+HzUvzIy3xd5E1y869WoEJpwR+eWmtxrZx+8QQ9cuSI22dq8LpkWBqp6SJpKaotrWVC2kxXEfLq9L/KmIS04ItLizIty0kRJiYzZE6ePGmuQ6InICPdLxS7uibnLSFpkFpJ60JLJnUrGq8MRF/kvUYHAUTGSivwQhfq8imGLy7PnyVoKqWYmGFR0+JFTxYIQEgip7tGV0sKGkY9SGtBXlJnXh4f6r4IrIM1ijPJSGvxVyupVNyrrr469d577xUUU0A+ClIiI2La1FbljEA9SWsh4pI2kz77DVfUeSm8TCrwRGKSFhCXiNstmU5+a5kL1ztbXVopVcyYqUdpXYi6RF8zGMDCPN4bb7zRpM/agDVGDOmxiy/u/Pnzc//xk5+wEn4kYtwJXilAIz1Y2/LM0a//AtEXgVu5ESvGSGshy6GbbtFll1028oPnnssykb4UKm3yNOqDRVyiARJz9EFg+n5bLQonIC3w5UjEXXT++eePvPjCCyXFVWmTpxkerK0DT2jEAsSlO6nZJU5IWvDF7erqyvX19maKzclVaZOnGR+sjcKs2lBQYhqz7LEZSFBaiCyuSps8rfBgi0oMpNQ0blmJGzEix9wQVQjEXSzPauS5vr5smLgqbfK04oO1Ei/0jn63kosVmPox50hdzzInHGldxsTt7Bz5lyefzAYn06u0yaMPdgxERl4rMiUUV2LOEZkjpZZUKdJaCq6CodImjz7YwiAydTlkJrXmGBqVLYg8a9YsI7CV2hXaPY+bKksLoeKqtMmjD7Z8ENem1SxoZ8+LCu2C0F1dXUZgjvaeFZp77jXYPwd8ZrH3WYu6Sumxy4RVMFRapdEgMiMxUZooxERzIhL1QMb0Mhg+n3Dh76omiGv+bhHX/TmUhNBvw9qA3Db15gj2GmZKca/B/jkodl6t9NjFXwXDQd8tRalzSJM10ipKg0E/uEqrKA2GFVdRlAYidOSZEgep1P8D8pLNg9GREHYAAAAASUVORK5CYII=;" vertex="1" parent="1">
          <mxGeometry x="780" y="248.07" width="40" height="23.96" as="geometry" />
        </mxCell>
        <mxCell id="8s2ToU_CGryy-fiqALUz-235" value="&lt;b&gt;&amp;nbsp;Validation task :&lt;/b&gt;" style="text;strokeColor=none;align=left;fillColor=none;html=1;verticalAlign=middle;whiteSpace=wrap;rounded=0;" vertex="1" parent="1">
          <mxGeometry x="660" y="288.07" width="110" height="30" as="geometry" />
        </mxCell>
        <mxCell id="8s2ToU_CGryy-fiqALUz-236" value="" style="shape=singleArrow;direction=west;whiteSpace=wrap;html=1;fillColor=#A8A8A8;strokeColor=#A8A8A8;" vertex="1" parent="1">
          <mxGeometry x="767.25" y="293.07" width="52.75" height="20" as="geometry" />
        </mxCell>
        <mxCell id="8s2ToU_CGryy-fiqALUz-238" value="&lt;b style=&quot;border-color: var(--border-color);&quot;&gt;&amp;nbsp; Risk Assement&lt;/b&gt;" style="rounded=1;whiteSpace=wrap;html=1;fillStyle=hatch;fillColor=#C7C7C7;strokeColor=#C7C7C7;strokeWidth=2;align=left;" vertex="1" parent="1">
          <mxGeometry x="667" y="322.08" width="143" height="30" as="geometry" />
        </mxCell>
        <mxCell id="8s2ToU_CGryy-fiqALUz-239" value="&lt;b&gt;Implementation and demonstration of compliance with RAMS requirements&lt;/b&gt;" style="rounded=1;whiteSpace=wrap;html=1;fillColor=#C9C9C9;strokeColor=none;align=left;" vertex="1" parent="1">
          <mxGeometry x="667" y="360" width="143" height="60" as="geometry" />
        </mxCell>
        <mxCell id="8s2ToU_CGryy-fiqALUz-245" value="" style="html=1;shadow=0;dashed=0;align=center;verticalAlign=middle;shape=mxgraph.arrows2.arrow;dy=0.67;dx=20;notch=0;fillColor=#000000;rotation=-60;" vertex="1" parent="1">
          <mxGeometry x="457.99" y="311.79" width="32.39" height="8.86" as="geometry" />
        </mxCell>
      </root>
    </mxGraphModel>
  </diagram>
</mxfile>
